<?xml version="1.0" standalone="no"?>
<!DOCTYPE svg PUBLIC "-//W3C//DTD SVG 20010904//EN"
 "http://www.w3.org/TR/2001/REC-SVG-20010904/DTD/svg10.dtd">
<svg version="1.0" xmlns="http://www.w3.org/2000/svg"
 width="1920.000000pt" height="1080.000000pt" viewBox="0 0 1920.000000 1080.000000"
 preserveAspectRatio="xMidYMid meet">

<g transform="translate(0.000000,1080.000000) scale(0.100000,-0.100000)"
fill="#000000" stroke="none">
<path d="M11545 4422 c-38 -2 -74 -8 -80 -13 -6 -6 -10 -227 -10 -622 l0 -612
-1400 -2 c-770 -2 -1406 -5 -1414 -8 -11 -4 -12 -8 -3 -17 33 -33 -5 -25 -49
10 -14 11 -21 9 -44 -13 -27 -24 -51 -27 -27 -3 7 7 12 28 11 48 0 31 -1 32
-9 13 -7 -17 -18 -23 -40 -23 -16 0 -30 -4 -30 -10 0 -5 -7 -10 -15 -10 -8 0
-15 7 -15 15 0 8 -4 15 -10 15 -5 0 -10 5 -10 10 0 6 14 10 30 10 17 0 30 4
30 10 0 5 -6 7 -13 4 -15 -5 -107 51 -107 66 0 5 10 10 23 10 22 0 22 0 -3 20
-14 11 -33 20 -43 20 -16 0 -16 -2 -2 -24 14 -21 14 -24 0 -30 -37 -14 -86 -6
-110 18 -27 27 -37 23 -25 -10 15 -38 93 -86 193 -118 23 -7 22 -26 -1 -26
-85 0 -252 114 -252 171 0 32 32 59 70 59 20 1 22 3 9 10 -19 11 -87 -3 -106
-23 -19 -19 -4 -79 29 -115 l23 -25 -40 23 c-51 29 -85 66 -85 92 0 19 -1 19
-24 4 -14 -9 -39 -17 -57 -18 -28 -3 -33 1 -43 30 -23 68 -77 66 -142 -4 -22
-24 -47 -44 -55 -44 -10 1 -9 4 4 11 9 6 17 22 17 38 0 22 15 39 85 94 47 37
91 80 97 95 7 15 13 29 15 31 1 2 16 -11 33 -28 17 -17 35 -31 38 -31 4 0 13
-13 20 -29 13 -29 42 -36 50 -12 5 16 -87 111 -108 111 -12 0 -12 2 -2 9 11 7
10 10 -3 15 -9 3 -21 4 -25 1 -20 -13 -27 61 -15 165 l7 60 -38 16 c-110 46
-384 -46 -674 -226 -190 -118 -482 -311 -538 -357 -35 -28 -61 -41 -75 -39
-12 2 -21 8 -20 14 1 6 -40 -10 -92 -34 -91 -42 -98 -44 -190 -44 -52 0 -95
-1 -95 -2 -1 -2 -6 -35 -13 -75 -7 -39 -11 -71 -8 -71 20 2 31 -3 26 -12 -11
-18 -137 -71 -155 -65 -25 8 -68 -31 -80 -73 -5 -20 -10 -59 -10 -87 0 -27 -3
-59 -6 -70 -7 -25 -76 -70 -129 -84 -48 -12 -616 -127 -1220 -246 -242 -48
-820 -163 -1285 -255 -465 -93 -998 -199 -1185 -235 -315 -62 -662 -131 -1095
-219 -390 -79 -457 -87 -506 -61 -16 8 -49 15 -74 15 -51 0 -163 49 -217 94
-38 32 -119 141 -162 217 -17 31 -40 64 -51 74 -20 18 -20 15 -20 -998 l0
-1017 9600 0 9600 0 0 1585 0 1585 -133 0 c-120 0 -134 2 -150 20 -9 11 -25
20 -36 20 -10 0 -119 20 -242 44 -123 25 -501 99 -839 166 -338 66 -664 131
-725 143 l-110 22 -5 405 c-3 223 -7 406 -8 406 -40 25 -133 26 -2464 19
-2883 -9 -2575 -9 -2738 1 -74 5 -166 8 -205 6z m150 -112 c-5 -16 -2 -20 19
-20 14 0 26 4 26 9 0 28 213 43 305 21 24 -6 250 -9 550 -8 281 0 778 1 1105
0 327 0 1165 -1 1861 -1 l1266 -1 7 -53 c3 -28 6 -186 6 -350 0 -280 -1 -298
-17 -293 -20 6 -77 17 -573 111 -519 99 -1877 369 -2015 400 -32 8 -61 13 -62
11 -2 -2 -13 -52 -24 -112 -50 -273 -62 -337 -84 -449 -37 -182 -42 -197 -65
-185 -15 8 -17 7 -13 -10 3 -11 12 -20 20 -20 10 0 12 -6 8 -19 -3 -10 -9 -38
-13 -62 -7 -38 -11 -45 -37 -50 -21 -5 -24 -7 -10 -9 11 -1 23 -2 28 -1 10 1
9 -27 -4 -72 -10 -37 -12 -47 -28 -147 -5 -30 -30 -158 -55 -285 -25 -126 -46
-231 -46 -232 0 -2 -18 -3 -40 -3 -34 0 -40 -3 -41 -22 l-2 -23 -4 23 c-4 20
-10 22 -69 22 -36 0 -64 -4 -64 -10 0 -5 -5 -10 -11 -10 -5 0 -7 5 -4 10 4 6
-12 10 -39 10 -30 0 -46 -4 -47 -12 0 -10 -2 -10 -6 0 -6 16 -43 16 -44 0 0
-10 -2 -10 -6 0 -6 16 -43 16 -44 0 0 -10 -2 -10 -6 0 -6 15 -33 16 -33 1 0
-8 -5 -8 -15 1 -10 8 -35 11 -70 8 -31 -3 -58 -1 -61 4 -3 4 -9 6 -13 3 -7 -4
-128 -5 -301 -3 -237 2 -490 -4 -490 -12 0 -6 -5 -10 -11 -10 -5 0 -7 5 -4 10
4 6 -13 10 -42 11 -76 2 -107 -2 -115 -15 -6 -8 -8 -8 -8 2 0 7 -13 12 -30 12
-23 0 -30 -4 -30 -20 0 -29 -17 -24 -25 7 -3 15 -9 22 -13 17 -4 -6 -21 -16
-39 -22 -26 -8 -31 -8 -27 3 3 7 1 16 -5 20 -6 3 -11 -1 -11 -9 0 -20 -16 -21
-23 -2 -3 8 -15 12 -31 9 -14 -3 -23 -9 -20 -14 3 -5 -2 -9 -11 -9 -9 0 -14 4
-11 8 3 5 -13 9 -35 10 -21 2 -39 -2 -39 -7 0 -6 7 -7 17 -4 11 4 14 3 9 -5
-11 -18 -56 -15 -56 3 0 8 -9 15 -20 15 -12 0 -20 -7 -20 -16 0 -14 -7 -15
-45 -10 -25 4 -51 4 -57 -1 -21 -13 -42 -13 -50 0 -10 15 -27 -8 -29 -38 -1
-12 -6 -4 -14 20 l-13 40 -12 -33 c-10 -26 -15 -31 -22 -20 -7 9 -8 7 -5 -9 3
-13 1 -25 -3 -28 -7 -5 -13 38 -24 198 -2 29 1 47 8 48 6 0 31 0 56 0 25 0 63
3 85 8 34 7 26 9 -51 10 l-92 1 -4 48 c-6 69 0 85 29 77 20 -5 24 -2 21 12 -2
12 -11 17 -24 15 -23 -3 -38 26 -24 48 4 7 3 31 -2 54 -5 22 -8 95 -5 161 2
66 1 129 -3 140 -4 11 -3 34 2 50 6 17 9 45 9 63 -1 28 2 32 23 32 24 0 41
-23 30 -41 -3 -5 0 -9 7 -9 7 0 5 -6 -6 -13 -24 -18 -3 -32 25 -17 11 6 20 7
19 3 -3 -20 2 -33 14 -33 8 0 14 7 14 15 0 8 -3 12 -7 10 -4 -2 -12 7 -18 20
-7 14 -16 25 -22 25 -5 0 -10 10 -10 21 0 18 2 20 16 9 12 -11 15 -11 12 1 -2
8 7 15 20 17 15 2 22 -2 22 -12 0 -12 10 -16 41 -16 26 0 38 -4 33 -11 -3 -6
-17 -8 -30 -5 -20 5 -24 2 -25 -16 -1 -17 -2 -19 -6 -5 -5 19 -18 22 -28 6
-11 -16 1 -22 47 -22 26 0 54 -7 69 -18 14 -10 29 -16 32 -13 3 3 3 -4 0 -16
-5 -19 -3 -21 16 -15 15 5 21 2 21 -9 0 -9 3 -16 8 -16 4 0 20 -11 35 -25 15
-14 27 -21 27 -16 0 5 -4 13 -10 16 -16 10 -12 43 8 54 15 9 16 10 0 11 -9 0
-18 10 -21 23 l-4 22 -9 -23 c-9 -21 -11 -21 -32 -6 -12 8 -20 20 -17 25 4 5
-1 12 -10 15 -10 4 -13 13 -10 25 4 13 1 19 -9 19 -8 0 -17 4 -21 9 -9 15 56
43 120 51 l60 7 -57 2 c-36 0 -58 5 -58 12 0 8 -5 8 -15 -1 -8 -7 -12 -17 -9
-22 4 -5 -4 -8 -17 -6 -17 2 -24 9 -23 24 1 20 -4 21 -114 22 -117 1 -166 15
-99 27 20 4 38 13 41 21 4 9 14 13 28 9 13 -3 43 -1 68 4 39 8 30 9 -62 10
-105 1 -108 2 -109 24 0 12 -2 196 -3 409 -2 440 -12 394 87 397 44 1 48 -1
42 -19z m2972 -552 c-3 -8 -6 -5 -6 6 -1 11 2 17 5 13 3 -3 4 -12 1 -19z
m-6843 -116 c-7 -95 -16 -126 -27 -84 -4 14 -5 13 -6 -4 -1 -21 -36 -37 -216
-95 -49 -15 -117 -38 -149 -49 -33 -11 -62 -18 -64 -15 -3 3 0 5 7 5 9 0 11 7
6 23 -4 12 -7 56 -6 97 1 69 4 77 29 97 15 13 101 47 192 77 163 54 218 67
233 56 4 -4 4 -52 1 -108z m6810 38 c10 -13 9 -13 -6 -1 -10 7 -18 21 -17 30
0 13 1 14 6 1 3 -8 11 -22 17 -30z m41 20 c-3 -5 -12 -10 -18 -10 -7 0 -6 4 3
10 19 12 23 12 15 0z m285 -45 c0 -8 -2 -15 -4 -15 -2 0 -6 7 -10 15 -3 8 -1
15 4 15 6 0 10 -7 10 -15z m-308 -17 c-7 -7 -12 -8 -12 -2 0 14 12 26 19 19 2
-3 -1 -11 -7 -17z m417 -4 c-15 -18 -22 -13 -13 10 3 9 10 13 16 10 5 -3 4
-12 -3 -20z m238 -56 c-3 -8 -6 -5 -6 6 -1 11 2 17 5 13 3 -3 4 -12 1 -19z
m313 -48 c0 -5 -2 -10 -4 -10 -3 0 -8 5 -11 10 -3 6 -1 10 4 10 6 0 11 -4 11
-10z m158 -34 c-7 -8 -15 -12 -17 -11 -5 6 10 25 20 25 5 0 4 -6 -3 -14z m123
-33 c-12 -20 -14 -14 -5 12 4 9 9 14 11 11 3 -2 0 -13 -6 -23z m47 0 c-10 -2
-18 -9 -18 -14 0 -6 -5 -7 -11 -3 -14 8 8 24 31 23 11 -1 10 -3 -2 -6z m-4188
-63 c0 -5 -4 -10 -10 -10 -5 0 -10 5 -10 10 0 6 5 10 10 10 6 0 10 -4 10 -10z
m-97 -7 c-7 -2 -21 -2 -30 0 -10 3 -4 5 12 5 17 0 24 -2 18 -5z m127 -23 c0
-5 -4 -10 -9 -10 -6 0 -13 5 -16 10 -3 6 1 10 9 10 9 0 16 -4 16 -10z m-4095
-19 c-3 -6 -11 -11 -17 -11 -6 0 -6 6 2 15 14 17 26 13 15 -4z m-505 -21 c0
-5 -5 -10 -11 -10 -5 0 -7 5 -4 10 3 6 8 10 11 10 2 0 4 -4 4 -10z m4650 -60
c0 -5 -4 -10 -9 -10 -6 0 -13 5 -16 10 -3 6 1 10 9 10 9 0 16 -4 16 -10z
m2698 -18 c2 -7 -3 -12 -12 -12 -9 0 -16 7 -16 16 0 17 22 14 28 -4z m52 -7
c0 -8 -6 -15 -14 -15 -17 0 -28 14 -19 24 12 12 33 6 33 -9z m-6280 -10 c17
-9 30 -17 30 -20 0 -7 -60 16 -66 26 -8 13 3 11 36 -6z m6323 0 c1 -5 -6 -11
-15 -13 -11 -2 -18 3 -18 13 0 17 30 18 33 0z m-6767 -35 c-8 -24 -31 -60 -38
-60 -13 0 -9 39 9 73 15 29 17 30 23 12 4 -11 7 -22 6 -25z m7519 -9 c110 -21
203 -37 208 -34 4 2 7 15 7 29 0 20 4 24 23 19 12 -2 172 -34 355 -70 184 -36
337 -67 341 -70 4 -2 6 -18 3 -35 -4 -26 -1 -30 18 -30 22 0 433 -79 438 -85
2 -1 -9 -66 -25 -144 -21 -112 -31 -141 -43 -141 -21 0 -354 67 -400 80 -48
14 -48 14 -55 -20 -4 -16 -9 -30 -11 -30 -2 0 -143 27 -312 60 -169 33 -320
63 -337 66 -63 11 -67 14 -63 44 l4 28 -220 42 c-122 23 -224 45 -228 49 -4 3
4 60 18 126 35 177 31 166 57 160 12 -3 112 -23 222 -44z m-851 31 c8 -13 -11
-35 -23 -28 -16 10 -14 36 3 36 8 0 17 -4 20 -8z m46 -17 c0 -8 -7 -15 -15
-15 -8 0 -15 7 -15 15 0 8 7 15 15 15 8 0 15 -7 15 -15z m48 -12 c2 -8 -5 -13
-17 -13 -12 0 -21 6 -21 16 0 18 31 15 38 -3z m-6303 -77 l30 -17 -30 6 c-41
9 -142 55 -156 71 -12 14 105 -30 156 -60z m6203 52 c-7 -19 -38 -22 -38 -4 0
10 9 16 21 16 12 0 19 -5 17 -12z m42 -13 c0 -8 -7 -15 -15 -15 -8 0 -15 7
-15 15 0 8 7 15 15 15 8 0 15 -7 15 -15z m48 -7 c-7 -19 -38 -22 -38 -4 0 10
9 16 21 16 12 0 19 -5 17 -12z m-6772 -89 c93 -50 181 -100 196 -111 21 -15
32 -17 47 -8 11 5 30 10 43 9 13 0 -33 -20 -102 -44 -134 -47 -177 -55 -61
-10 39 15 71 30 71 33 0 7 -29 24 -237 134 -122 64 -159 88 -135 88 5 0 85
-41 178 -91z m10401 -8 c18 -15 22 -26 17 -51 -4 -20 -11 -29 -20 -26 -7 3
-18 -2 -25 -10 -10 -12 -15 -11 -35 11 -18 19 -21 30 -15 52 5 18 14 27 24 25
10 -2 17 2 17 8 0 15 12 12 37 -9z m233 -51 c0 -5 -2 -10 -4 -10 -3 0 -8 5
-11 10 -3 6 -1 10 4 10 6 0 11 -4 11 -10z m-12220 -31 c21 -17 40 -42 43 -55
l4 -24 -53 31 c-46 26 -58 29 -88 21 -19 -6 -37 -8 -40 -6 -4 2 -2 -2 4 -8 20
-23 10 -29 -21 -11 l-31 18 69 32 c37 18 69 32 71 33 2 0 20 -14 42 -31z
m8260 16 c19 -22 8 -25 -12 -3 -10 10 -14 18 -9 18 5 0 14 -7 21 -15z m70 -9
c0 -3 -4 -8 -10 -11 -5 -3 -10 -1 -10 4 0 6 5 11 10 11 6 0 10 -2 10 -4z
m4065 -6 c3 -5 -1 -10 -9 -10 -9 0 -16 5 -16 10 0 6 4 10 9 10 6 0 13 -4 16
-10z m-79 -57 c-11 -11 -17 4 -9 23 7 18 8 18 11 1 2 -10 1 -21 -2 -24z
m-11959 -12 c22 -18 40 -64 35 -89 -2 -7 7 -26 18 -42 24 -34 22 -35 -27 -15
-19 8 -43 15 -52 15 -29 0 -61 43 -63 83 -2 63 42 87 89 48z m10483 -46 c129
-26 236 -48 239 -50 2 -3 -9 -68 -24 -145 -22 -109 -31 -140 -43 -140 -18 0
-495 92 -501 97 -5 4 47 272 55 285 3 5 13 7 22 4 10 -3 123 -26 252 -51z
m-8980 0 c9 -11 8 -22 -7 -52 -15 -33 -33 -45 -123 -90 -58 -29 -106 -53 -107
-53 -1 0 2 12 7 26 17 45 10 51 -9 8 -19 -43 -52 -76 -37 -38 4 10 10 32 13
47 4 20 17 34 44 48 40 20 48 14 28 -23 -6 -11 -8 -22 -5 -25 3 -3 10 7 16 23
14 37 39 64 58 64 13 0 12 -3 -4 -16 -16 -13 -16 -15 -2 -10 10 3 21 -2 27
-11 8 -15 11 -15 26 -3 23 19 47 68 40 81 -9 14 -37 -11 -31 -28 3 -7 -1 -13
-9 -13 -25 0 -17 27 16 54 35 30 42 31 59 11z m-689 -42 c18 -27 46 -63 62
-80 17 -18 26 -33 21 -33 -6 0 -22 12 -35 28 -40 43 -100 132 -89 132 5 0 23
-21 41 -47z m84 27 c10 -11 16 -20 13 -20 -3 0 -13 9 -23 20 -10 11 -16 20
-13 20 3 0 13 -9 23 -20z m-20 -48 c-6 -7 -35 18 -35 31 0 5 9 2 20 -8 11 -10
18 -20 15 -23z m10144 -42 c140 -27 256 -52 259 -54 5 -6 -46 -277 -54 -285
-4 -5 -398 68 -487 91 -29 7 -37 13 -33 26 3 9 14 69 26 132 21 113 27 140 32
140 2 0 117 -23 257 -50z m-11259 -6 c23 -14 30 -25 28 -44 -3 -22 -7 -25 -36
-22 -39 4 -102 39 -102 56 0 38 53 43 110 10z m170 -4 c0 -5 7 -10 16 -10 11
0 4 -14 -23 -44 -46 -54 -66 -40 -33 24 19 37 40 53 40 30z m9073 -20 c-3 -11
-10 -23 -16 -27 -7 -4 -8 0 -4 11 4 10 7 22 7 27 0 5 4 9 9 9 5 0 7 -9 4 -20z
m-7991 -20 c-45 -32 -52 -35 -52 -20 0 9 66 49 84 50 5 0 -10 -13 -32 -30z
m6841 23 c-13 -2 -35 -2 -50 0 -16 2 -5 4 22 4 28 0 40 -2 28 -4z m-6630 -15
c7 -21 -9 -54 -39 -77 -32 -25 -50 -15 -40 24 12 47 67 84 79 53z m6708 -25
c21 -23 42 -88 36 -110 -3 -11 -5 -8 -6 10 -1 17 -7 27 -16 27 -11 0 -13 7 -9
29 5 23 0 33 -28 55 -18 15 -24 23 -13 18 11 -6 27 -18 36 -29z m1149 12 c0
-8 -4 -17 -10 -20 -6 -4 -10 5 -10 20 0 15 4 24 10 20 6 -3 10 -12 10 -20z
m80 -13 c0 -15 -2 -15 -10 -2 -13 20 -13 33 0 25 6 -3 10 -14 10 -23z m-1290
8 c0 -5 7 -10 16 -10 10 0 14 -6 10 -15 -3 -8 -2 -14 2 -12 4 1 8 -2 10 -8 8
-24 -19 -13 -29 12 -10 26 -11 27 -24 9 -18 -24 -39 -12 -25 15 11 20 40 27
40 9z m-6730 -4 c0 -17 -42 -96 -51 -96 -6 0 -9 6 -6 13 15 41 18 59 9 53 -6
-3 -13 -19 -17 -35 -6 -29 -31 -59 -40 -49 -3 2 2 26 11 51 11 33 21 47 34 47
11 0 22 5 25 10 6 10 35 14 35 6z m10459 -50 c129 -25 236 -48 239 -51 6 -5
-46 -276 -54 -284 -6 -7 -496 89 -507 99 -8 7 38 263 50 283 3 4 12 6 21 3 10
-3 122 -26 251 -50z m-3896 14 c-3 -12 -8 -19 -11 -16 -5 6 5 36 12 36 2 0 2
-9 -1 -20z m143 -26 c30 -26 54 -50 54 -53 0 -9 -129 -55 -136 -49 -5 6 18
148 24 148 2 0 28 -21 58 -46z m1470 30 c-3 -9 -6 -18 -6 -20 0 -2 -4 -4 -9
-4 -5 0 -7 9 -4 20 3 11 10 20 15 20 6 0 7 -7 4 -16z m-56 2 c0 -3 -4 -8 -10
-11 -5 -3 -10 -1 -10 4 0 6 5 11 10 11 6 0 10 -2 10 -4z m90 -10 c0 -8 -4 -18
-10 -21 -5 -3 -10 3 -10 14 0 12 5 21 10 21 6 0 10 -6 10 -14z m47 -8 c-3 -8
-6 -5 -6 6 -1 11 2 17 5 13 3 -3 4 -12 1 -19z m-501 2 c32 -6 88 -17 124 -25
36 -8 137 -28 225 -45 242 -46 245 -47 245 -80 0 -16 -11 -84 -24 -152 -86
-449 -79 -418 -101 -418 -27 0 -1031 201 -1044 210 -8 4 -7 24 1 64 12 55 13
57 43 55 30 -2 76 14 105 36 17 14 149 37 162 29 4 -3 8 2 8 11 0 12 -6 15
-22 10 -15 -5 -19 -4 -13 2 6 5 30 15 55 22 25 7 52 20 61 28 21 18 70 24 86
11 22 -17 61 1 88 39 18 28 25 33 25 19 0 -11 -8 -28 -17 -39 -17 -19 -17 -19
3 -7 12 7 26 25 31 39 10 25 11 25 18 -17 7 -39 10 -43 34 -40 20 2 25 8 24
26 -2 12 3 22 10 22 6 0 -1 10 -17 23 -24 20 -26 24 -13 35 12 11 15 10 13 -5
-2 -30 28 -25 47 9 15 26 16 33 4 45 -19 19 -103 -25 -99 -53 3 -14 -3 -11
-20 11 -13 16 -38 45 -57 63 -26 26 -36 30 -47 21 -20 -16 -17 -4 3 17 16 15
16 17 -2 30 -23 17 -16 17 61 4z m-1209 -42 c-3 -8 -6 -5 -6 6 -1 11 2 17 5
13 3 -3 4 -12 1 -19z m253 -25 c0 -36 -19 -66 -37 -59 -9 4 -21 0 -27 -9 -7
-10 -16 -12 -25 -6 -12 8 -10 12 12 22 15 7 27 15 27 19 0 5 8 7 18 6 18 -1
19 10 6 54 -7 22 -6 24 9 11 9 -7 17 -24 17 -38z m1565 37 c3 -5 1 -10 -4 -10
-6 0 -11 5 -11 10 0 6 2 10 4 10 3 0 8 -4 11 -10z m-1759 -27 c-2 -16 -4 -30
-5 -32 -2 -7 -31 21 -31 30 0 5 7 9 16 9 8 0 12 5 9 10 -3 6 -2 10 4 10 5 0 8
-12 7 -27z m4293 -34 c73 -14 125 -29 128 -36 5 -13 -41 -270 -49 -279 -3 -2
-67 9 -144 24 -125 25 -139 30 -142 50 -3 19 29 202 44 255 4 11 12 16 22 13
9 -2 73 -15 141 -27z m-12015 -11 c-7 -23 -31 -47 -48 -48 -5 0 3 12 18 26 14
15 26 31 26 35 0 5 3 9 6 9 3 0 2 -10 -2 -22z m36 8 c0 -3 -4 -8 -10 -11 -5
-3 -10 -1 -10 4 0 6 5 11 10 11 6 0 10 -2 10 -4z m7885 -33 c-21 -31 -45 -52
-60 -52 -5 0 -2 4 9 10 15 9 16 13 5 21 -11 8 -10 8 4 4 13 -4 23 3 35 23 9
17 18 28 21 26 2 -3 -4 -17 -14 -32z m953 1 c-4 -3 -12 5 -18 18 -12 22 -12
22 6 6 10 -10 15 -20 12 -24z m-29 -14 c30 -16 31 -36 3 -61 l-26 -24 18 29
c18 29 18 29 -5 47 -26 20 -19 25 10 9z m-7019 -82 c160 -74 328 -161 356
-185 l29 -25 -27 16 c-16 9 -40 23 -54 33 -73 47 -258 -20 -387 -140 -34 -32
-37 -38 -25 -56 11 -17 9 -24 -11 -45 -17 -18 -31 -24 -46 -20 -46 12 -195
-195 -165 -231 16 -19 5 -33 -23 -28 -19 4 -28 -6 -63 -69 -23 -40 -47 -88
-54 -106 -7 -18 -14 -31 -17 -29 -2 2 15 48 37 103 22 54 40 101 40 104 0 3
-76 45 -169 94 -94 50 -169 94 -168 99 1 5 -4 12 -12 15 -9 3 -11 0 -6 -8 6
-9 4 -11 -4 -5 -8 5 -9 11 -3 17 6 6 17 5 30 -3 28 -17 40 -4 19 19 -29 31
-19 30 46 -4 34 -19 73 -38 87 -44 14 -6 51 -24 83 -40 31 -17 57 -27 57 -24
0 4 6 1 14 -5 7 -6 27 -13 45 -15 27 -3 35 2 66 44 19 26 35 52 35 56 0 9 -27
27 -105 70 -22 12 -65 35 -95 52 -30 17 -90 47 -133 68 -72 35 -76 38 -61 55
9 10 23 15 32 12 11 -5 14 -2 9 10 -4 10 4 28 20 47 23 28 27 29 42 16 9 -8
30 -18 46 -22 17 -4 44 -14 60 -22 45 -24 138 -62 152 -62 6 0 45 -16 87 -36
43 -20 82 -32 89 -28 6 4 36 28 64 53 l53 45 -63 34 c-63 34 -157 117 -157
137 0 7 -11 22 -25 35 -35 33 -31 42 12 23 21 -8 49 -17 63 -20 21 -4 113 -43
173 -74 21 -11 69 -1 64 14 -2 6 -35 28 -75 50 -39 22 -69 44 -66 49 3 4 1 8
-3 8 -5 0 -18 7 -29 15 -17 13 -15 13 21 1 22 -8 74 -29 115 -48z m6998 42
c-7 -10 -14 -18 -15 -16 -6 6 9 36 18 36 5 0 4 -9 -3 -20z m-3081 -12 c-3 -8
-6 -5 -6 6 -1 11 2 17 5 13 3 -3 4 -12 1 -19z m953 12 c0 -5 -5 -10 -11 -10
-5 0 -7 5 -4 10 3 6 8 10 11 10 2 0 4 -4 4 -10z m2272 -54 c-7 -12 -20 21 -21
49 0 15 3 12 13 -10 7 -16 11 -34 8 -39z m-3296 14 c-37 -6 -78 -1 -71 10 2 4
23 5 45 3 33 -3 40 -1 41 14 0 16 1 16 8 -2 7 -17 3 -21 -23 -25z m704 30 c0
-5 -2 -10 -4 -10 -3 0 -8 5 -11 10 -3 6 -1 10 4 10 6 0 11 -4 11 -10z m173
-10 c3 -11 1 -23 -4 -26 -5 -3 -9 6 -9 20 0 31 6 34 13 6z m-399 -11 c3 1 7
-2 9 -6 1 -5 -13 -9 -30 -10 -37 -1 -41 4 -16 23 12 8 20 9 24 2 3 -5 9 -9 13
-9z m-839 -17 c1 -12 -2 -22 -7 -22 -4 0 -8 6 -8 14 0 8 -6 14 -12 13 -31 -1
-49 4 -44 12 3 4 20 8 37 7 26 -1 33 -6 34 -24z m95 18 c0 -5 -5 -10 -11 -10
-5 0 -7 5 -4 10 3 6 8 10 11 10 2 0 4 -4 4 -10z m414 -11 c-3 -5 -10 -7 -15
-3 -5 3 -7 10 -3 15 3 5 10 7 15 3 5 -3 7 -10 3 -15z m113 5 c-4 -4 -61 -8
-87 -5 -11 1 -12 3 -3 9 12 8 98 4 90 -4z m319 -11 c-10 -10 -19 5 -10 18 6
11 8 11 12 0 2 -7 1 -15 -2 -18z m444 18 c0 -12 -39 -21 -45 -11 -3 5 5 11 17
13 13 2 24 5 26 6 1 0 2 -3 2 -8z m-928 -23 c-5 -20 -7 -20 -10 -5 -2 11 -9
16 -18 13 -7 -3 -16 -1 -19 4 -4 6 7 10 23 10 26 0 29 -3 24 -22z m286 15
c-10 -2 -26 -2 -35 0 -10 3 -2 5 17 5 19 0 27 -2 18 -5z m295 0 c-7 -2 -19 -2
-25 0 -7 3 -2 5 12 5 14 0 19 -2 13 -5z m140 0 c-7 -2 -19 -2 -25 0 -7 3 -2 5
12 5 14 0 19 -2 13 -5z m112 -3 c-3 -5 -12 -7 -20 -3 -21 7 -19 13 6 13 11 0
18 -4 14 -10z m265 0 c0 -5 -2 -10 -4 -10 -3 0 -8 5 -11 10 -3 6 -1 10 4 10 6
0 11 -4 11 -10z m100 6 c0 -11 -19 -15 -25 -6 -3 5 1 10 9 10 9 0 16 -2 16 -4z
m120 0 c0 -9 -39 -13 -51 -5 -10 6 -4 9 19 9 17 0 32 -2 32 -4z m-1555 -26 c4
-6 -6 -10 -22 -9 -25 0 -26 1 -8 9 11 5 21 9 22 9 1 1 5 -3 8 -9z m1182 -32
c-3 -8 -6 -5 -6 6 -1 11 2 17 5 13 3 -3 4 -12 1 -19z m114 -5 c26 3 38 0 36
-7 -5 -15 -79 -10 -88 6 -4 7 -5 17 -1 23 4 6 8 2 10 -8 3 -14 11 -17 43 -14z
m108 -17 c-14 -15 -22 0 -13 26 7 22 7 22 14 3 4 -11 4 -24 -1 -29z m76 34 c3
-5 -1 -10 -10 -10 -9 0 -13 5 -10 10 3 6 8 10 10 10 2 0 7 -4 10 -10z m783
-26 c-4 -3 -12 5 -18 18 -12 22 -12 22 6 6 10 -10 15 -20 12 -24z m-691 20
c-3 -3 -12 -4 -19 -1 -8 3 -5 6 6 6 11 1 17 -2 13 -5z m-122 -14 c3 -5 1 -10
-4 -10 -6 0 -11 5 -11 10 0 6 2 10 4 10 3 0 8 -4 11 -10z m-1453 -25 c-2 -14
-6 -25 -7 -25 -1 0 -5 11 -7 25 -3 16 -1 25 7 25 8 0 10 -9 7 -25z m488 11 c0
-8 -4 -18 -10 -21 -5 -3 -10 3 -10 14 0 12 5 21 10 21 6 0 10 -6 10 -14z m440
10 c0 -3 -4 -8 -10 -11 -5 -3 -10 -1 -10 4 0 6 5 11 10 11 6 0 10 -2 10 -4z
m709 -40 c-9 -8 -10 -7 -5 7 3 10 7 24 7 30 1 7 3 4 6 -7 3 -10 -1 -23 -8 -30z
m-2124 15 c3 -5 1 -12 -5 -16 -5 -3 -10 1 -10 9 0 18 6 21 15 7z m175 -1 c0
-5 -5 -10 -11 -10 -5 0 -7 5 -4 10 3 6 8 10 11 10 2 0 4 -4 4 -10z m485 0 c3
-5 1 -10 -4 -10 -6 0 -11 5 -11 10 0 6 2 10 4 10 3 0 8 -4 11 -10z m490 0 c3
-5 -1 -10 -9 -10 -9 0 -16 5 -16 10 0 6 4 10 9 10 6 0 13 -4 16 -10z m90 0 c3
-6 -4 -10 -17 -10 -18 0 -20 2 -8 10 19 12 18 12 25 0z m-445 -9 c0 -4 -11 -6
-25 -3 -14 2 -25 6 -25 8 0 2 11 4 25 4 14 0 25 -4 25 -9z m268 2 c-9 -2 -18
-16 -20 -31 -2 -15 -6 -22 -9 -17 -11 17 9 55 28 54 16 -1 16 -2 1 -6z m540
-28 c-3 -3 -9 2 -12 12 -6 14 -5 15 5 6 7 -7 10 -15 7 -18z m-1631 -17 c-3 -7
-5 -2 -5 12 0 14 2 19 5 13 2 -7 2 -19 0 -25z m853 22 c0 -5 -2 -10 -4 -10 -3
0 -8 5 -11 10 -3 6 -1 10 4 10 6 0 11 -4 11 -10z m370 -5 c0 -8 -4 -15 -10
-15 -5 0 -10 7 -10 15 0 8 5 15 10 15 6 0 10 -7 10 -15z m877 -5 c1 -11 -2
-22 -8 -25 -5 -4 -9 -2 -9 4 0 5 -3 16 -6 25 -4 10 -1 16 8 16 7 0 14 -9 15
-20z m27 8 c-5 -8 -2 -9 9 -5 11 4 17 1 17 -8 0 -21 -16 -27 -30 -10 -10 13
-7 35 6 35 3 0 2 -5 -2 -12z m-1999 -18 c3 -5 1 -10 -4 -10 -6 0 -11 5 -11 10
0 6 2 10 4 10 3 0 8 -4 11 -10z m75 0 c0 -5 -4 -10 -10 -10 -5 0 -10 5 -10 10
0 6 5 10 10 10 6 0 10 -4 10 -10z m70 0 c0 -5 -4 -10 -10 -10 -5 0 -10 5 -10
10 0 6 5 10 10 10 6 0 10 -4 10 -10z m170 0 c0 -5 -2 -10 -4 -10 -3 0 -8 5
-11 10 -3 6 -1 10 4 10 6 0 11 -4 11 -10z m477 -27 c-3 -10 -5 -4 -5 12 0 17
2 24 5 18 2 -7 2 -21 0 -30z m253 27 c0 -5 -4 -10 -10 -10 -5 0 -10 5 -10 10
0 6 5 10 10 10 6 0 10 -4 10 -10z m320 0 c0 -5 -7 -10 -16 -10 -8 0 -12 5 -9
10 3 6 10 10 16 10 5 0 9 -4 9 -10z m327 -12 c-3 -8 -6 -5 -6 6 -1 11 2 17 5
13 3 -3 4 -12 1 -19z m143 7 c0 -2 -7 -5 -15 -9 -9 -3 -15 0 -15 9 0 9 6 12
15 9 8 -4 15 -7 15 -9z m100 5 c12 -8 9 -10 -13 -10 -16 0 -26 4 -22 10 8 12
16 12 35 0z m3797 -29 c109 -21 342 -67 518 -101 176 -35 322 -65 324 -67 7
-5 -40 -247 -50 -257 -5 -6 -9 -24 -9 -40 0 -17 -12 -93 -27 -170 l-27 -138
-47 6 c-84 11 -312 65 -368 86 -37 15 -56 18 -61 10 -5 -7 -79 3 -241 34 -392
76 -364 68 -361 97 4 28 100 524 109 557 3 13 13 22 24 22 10 0 108 -18 216
-39z m-4473 14 c3 -8 1 -15 -3 -15 -5 0 -11 7 -15 15 -3 8 -1 15 3 15 5 0 11
-7 15 -15z m-1139 -4 c3 -5 1 -12 -5 -16 -5 -3 -10 1 -10 9 0 18 6 21 15 7z
m1747 -36 c3 -14 1 -25 -3 -25 -5 0 -9 11 -9 25 0 14 2 25 4 25 2 0 6 -11 8
-25z m-1700 -28 c-2 -5 -10 0 -18 10 -20 26 -17 36 4 16 11 -10 17 -22 14 -26z
m1198 33 c0 -5 -7 -10 -15 -10 -8 0 -15 5 -15 10 0 6 7 10 15 10 8 0 15 -4 15
-10z m120 0 c0 -5 -12 -10 -26 -10 -14 0 -23 4 -19 10 3 6 15 10 26 10 10 0
19 -4 19 -10z m67 -9 c0 -11 -5 -17 -9 -15 -11 7 -10 34 1 34 6 0 9 -9 8 -19z
m-646 -6 c5 4 17 1 26 -4 15 -8 11 -10 -19 -11 -31 0 -36 3 -31 17 4 11 8 13
11 5 2 -7 8 -10 13 -7z m179 -8 c12 -4 11 -6 -2 -6 -12 -1 -18 -9 -18 -26 0
-24 -1 -24 -18 -7 -13 12 -14 18 -5 20 7 2 11 8 8 13 -8 12 6 34 14 22 3 -6
13 -13 21 -16z m582 1 c-7 -7 -12 -8 -12 -2 0 14 12 26 19 19 2 -3 -1 -11 -7
-17z m-648 -9 c-3 -5 -10 -7 -15 -3 -5 3 -7 10 -3 15 3 5 10 7 15 3 5 -3 7
-10 3 -15z m248 6 c0 -5 -5 -11 -11 -13 -6 -2 -11 4 -11 13 0 9 5 15 11 13 6
-2 11 -8 11 -13z m63 5 c3 -5 1 -10 -4 -10 -6 0 -11 5 -11 10 0 6 2 10 4 10 3
0 8 -4 11 -10z m-1455 -10 c0 -5 -2 -10 -4 -10 -3 0 -8 5 -11 10 -3 6 -1 10 4
10 6 0 11 -4 11 -10z m180 6 c0 -3 -4 -8 -10 -11 -5 -3 -10 -1 -10 4 0 6 5 11
10 11 6 0 10 -2 10 -4z m453 -11 c4 -8 2 -17 -3 -20 -6 -4 -10 3 -10 14 0 25
6 27 13 6z m70 8 c-7 -2 -21 -2 -30 0 -10 3 -4 5 12 5 17 0 24 -2 18 -5z m104
1 c-3 -3 -12 -4 -19 -1 -8 3 -5 6 6 6 11 1 17 -2 13 -5z m133 -14 c-14 -10
-27 -17 -29 -14 -6 5 31 33 44 33 6 1 -1 -8 -15 -19z m1016 4 c-18 -17 -26
-18 -26 -1 0 7 9 13 20 14 18 2 18 0 6 -13z m142 -4 c-13 -20 -21 -19 -24 5
-1 9 6 15 17 15 17 0 17 -3 7 -20z m-272 -17 c-6 -15 -9 -15 -16 -3 -6 9 -5
17 3 22 16 10 21 2 13 -19z m-1899 -35 c-2 -13 -4 -5 -4 17 -1 22 1 32 4 23 2
-10 2 -28 0 -40z m579 6 c-3 -8 -17 -13 -33 -13 l-28 2 28 4 c21 3 27 10 28
31 1 18 3 21 6 9 3 -10 2 -25 -1 -33z m814 42 c0 -11 -19 -15 -25 -6 -3 5 1
10 9 10 9 0 16 -2 16 -4z m580 0 c0 -3 -4 -8 -10 -11 -5 -3 -10 -1 -10 4 0 6
5 11 10 11 6 0 10 -2 10 -4z m-1843 -40 c-13 -13 -16 -13 -20 -1 -4 8 1 15 11
18 24 5 27 0 9 -17z m73 17 c0 -5 -5 -15 -10 -23 -8 -12 -10 -11 -10 8 0 12 5
22 10 22 6 0 10 -3 10 -7z m157 -30 c-3 -10 -5 -4 -5 12 0 17 2 24 5 18 2 -7
2 -21 0 -30z m283 27 c0 -5 -7 -10 -16 -10 -8 0 -12 5 -9 10 3 6 10 10 16 10
5 0 9 -4 9 -10z m40 -5 c0 -8 -4 -15 -10 -15 -5 0 -10 7 -10 15 0 8 5 15 10
15 6 0 10 -7 10 -15z m134 -5 c-21 -8 -37 -3 -29 10 3 4 15 6 27 2 21 -5 21
-6 2 -12z m103 -2 c-3 -8 -6 -5 -6 6 -1 11 2 17 5 13 3 -3 4 -12 1 -19z m103
6 c0 -8 -5 -12 -10 -9 -6 4 -8 11 -5 16 9 14 15 11 15 -7z m50 0 c0 -8 -4 -12
-10 -9 -5 3 -10 10 -10 16 0 5 5 9 10 9 6 0 10 -7 10 -16z m95 6 c3 -5 1 -10
-4 -10 -6 0 -11 5 -11 10 0 6 2 10 4 10 3 0 8 -4 11 -10z m655 -6 c0 -8 -5
-12 -10 -9 -6 4 -8 11 -5 16 9 14 15 11 15 -7z m120 2 c0 -7 -7 -19 -15 -26
-8 -7 -12 -16 -9 -21 3 -5 0 -9 -5 -9 -16 0 -13 27 4 34 8 3 12 12 9 21 -3 8
-1 15 5 15 6 0 11 -6 11 -14z m100 -8 c0 -19 -2 -20 -10 -8 -13 19 -13 30 0
30 6 0 10 -10 10 -22z m-1530 2 c0 -5 -2 -10 -4 -10 -3 0 -8 5 -11 10 -3 6 -1
10 4 10 6 0 11 -4 11 -10z m-443 -32 c-3 -7 -5 -2 -5 12 0 14 2 19 5 13 2 -7
2 -19 0 -25z m2115 10 c-7 -7 -12 -8 -12 -2 0 14 12 26 19 19 2 -3 -1 -11 -7
-17z m-1072 2 c0 -5 -2 -10 -4 -10 -3 0 -8 5 -11 10 -3 6 -1 10 4 10 6 0 11
-4 11 -10z m520 0 c0 -13 -11 -13 -30 0 -12 8 -11 10 8 10 12 0 22 -4 22 -10z
m70 0 c0 -5 -2 -10 -4 -10 -3 0 -8 5 -11 10 -3 6 -1 10 4 10 6 0 11 -4 11 -10z
m455 -20 c3 -5 1 -10 -4 -10 -6 0 -11 5 -11 10 0 6 2 10 4 10 3 0 8 -4 11 -10z
m-4859 -36 c26 -9 60 -26 76 -37 l29 -22 -65 -16 c-36 -9 -86 -29 -111 -43
l-46 -27 -33 20 c-18 12 -41 21 -50 21 -18 0 -56 34 -56 50 0 6 9 10 20 10 10
0 23 7 27 15 8 14 99 43 140 44 12 1 43 -6 69 -15z m3401 -16 c-3 -7 -5 -2 -5
12 0 14 2 19 5 13 2 -7 2 -19 0 -25z m253 28 c0 -3 -4 -8 -10 -11 -5 -3 -10
-1 -10 4 0 6 5 11 10 11 6 0 10 -2 10 -4z m87 -18 c-3 -8 -6 -5 -6 6 -1 11 2
17 5 13 3 -3 4 -12 1 -19z m223 2 c0 -11 -4 -20 -9 -20 -5 0 -7 9 -4 20 3 11
7 20 9 20 2 0 4 -9 4 -20z m3722 -2 c-7 -7 -12 -8 -12 -2 0 14 12 26 19 19 2
-3 -1 -11 -7 -17z m-3649 -13 c-7 -21 -13 -19 -13 6 0 11 4 18 10 14 5 -3 7
-12 3 -20z m-48 5 c3 -5 1 -10 -4 -10 -6 0 -11 5 -11 10 0 6 2 10 4 10 3 0 8
-4 11 -10z m-1190 -20 c3 -5 1 -10 -4 -10 -6 0 -11 5 -11 10 0 6 2 10 4 10 3
0 8 -4 11 -10z m1680 1 c3 -5 1 -12 -5 -16 -5 -3 -10 1 -10 9 0 18 6 21 15 7z
m288 -16 c-7 -21 -13 -19 -13 6 0 11 4 18 10 14 5 -3 7 -12 3 -20z m2981 11
c-3 -8 -12 -17 -20 -20 -11 -4 -12 -2 -1 14 14 23 29 27 21 6z m-3829 -15 c3
-5 1 -12 -5 -16 -5 -3 -10 1 -10 9 0 18 6 21 15 7z m45 -11 c0 -5 -2 -10 -4
-10 -3 0 -8 5 -11 10 -3 6 -1 10 4 10 6 0 11 -4 11 -10z m583 -16 c-4 -10 -9
-12 -15 -6 -12 12 -1 35 12 27 5 -3 6 -13 3 -21z m-1473 -3 c0 -6 -4 -13 -10
-16 -5 -3 -10 1 -10 9 0 9 5 16 10 16 6 0 10 -4 10 -9z m770 -1 c0 -5 -5 -10
-11 -10 -5 0 -7 5 -4 10 3 6 8 10 11 10 2 0 4 -4 4 -10z m35 -20 c-24 -26 -32
-18 -9 9 10 11 20 18 23 16 2 -3 -4 -14 -14 -25z m305 19 c0 -9 -60 -17 -65
-9 -3 4 -2 9 0 12 8 7 65 4 65 -3z m170 1 c0 -5 -5 -10 -11 -10 -5 0 -7 5 -4
10 3 6 8 10 11 10 2 0 4 -4 4 -10z m240 -5 c0 -8 -2 -15 -4 -15 -2 0 -6 7 -10
15 -3 8 -1 15 4 15 6 0 10 -7 10 -15z m58 3 c-2 -6 -10 -14 -16 -16 -7 -2 -10
2 -6 12 7 18 28 22 22 4z m67 2 c3 -5 1 -10 -4 -10 -6 0 -11 5 -11 10 0 6 2
10 4 10 3 0 8 -4 11 -10z m-714 -20 c11 0 18 -4 14 -9 -11 -18 -45 -8 -44 14
0 11 3 14 6 8 2 -7 14 -13 24 -13z m1495 -16 c47 -37 68 -97 54 -159 -18 -80
-123 -141 -192 -112 -110 47 -142 178 -61 254 61 58 137 64 199 17z m-2047 -6
c-1 -24 -3 -27 -6 -10 -2 12 -10 22 -16 22 -7 0 -6 4 3 10 21 13 20 14 19 -22z
m246 23 c3 -5 1 -12 -5 -16 -5 -3 -10 1 -10 9 0 18 6 21 15 7z m780 -6 c0 -10
-35 -16 -47 -9 -5 3 -6 10 -3 15 7 10 50 6 50 -6z m3241 -4 c5 1 23 1 39 0 28
-2 29 -3 12 -15 -12 -10 -14 -15 -6 -18 8 -3 10 -13 6 -29 -10 -36 -23 -52
-37 -44 -9 6 -9 9 1 16 15 10 3 13 -37 10 -23 -2 -26 12 -18 67 4 27 8 31 19
22 7 -6 17 -10 21 -9z m-4696 -1 c0 -5 -4 -10 -10 -10 -5 0 -10 5 -10 10 0 6
5 10 10 10 6 0 10 -4 10 -10z m150 6 c0 -11 -19 -15 -25 -6 -3 5 1 10 9 10 9
0 16 -2 16 -4z m430 -16 c0 -11 -4 -20 -10 -20 -5 0 -10 9 -10 20 0 11 5 20
10 20 6 0 10 -9 10 -20z m510 10 c0 -5 -4 -10 -10 -10 -5 0 -10 5 -10 10 0 6
5 10 10 10 6 0 10 -4 10 -10z m630 -11 c0 -11 -4 -17 -10 -14 -5 3 -10 13 -10
21 0 8 5 14 10 14 6 0 10 -9 10 -21z m-103 -4 c-6 -17 -37 -18 -37 -1 0 9 8
14 20 13 11 -1 19 -6 17 -12z m-1460 -17 c-3 -8 -6 -5 -6 6 -1 11 2 17 5 13 3
-3 4 -12 1 -19z m1667 14 c8 -13 -9 -33 -25 -30 -21 4 -30 21 -16 30 16 10 35
10 41 0z m2793 -7 c9 -24 -1 -27 -15 -5 -8 13 -8 20 -2 20 6 0 13 -7 17 -15z
m188 -24 c-3 -12 -11 -21 -16 -21 -10 0 -12 21 -3 45 10 24 27 2 19 -24z
m-3641 -3 c-9 -14 -23 2 -17 18 4 12 8 13 14 3 4 -7 5 -17 3 -21z m63 0 c-3
-8 -6 -5 -6 6 -1 11 2 17 5 13 3 -3 4 -12 1 -19z m249 -5 c-10 -10 -19 5 -10
18 6 11 8 11 12 0 2 -7 1 -15 -2 -18z m45 14 c-1 -12 -15 -9 -19 4 -3 6 1 10
8 8 6 -3 11 -8 11 -12z m48 -19 c-1 -31 -1 -31 -8 -8 -5 14 -6 28 -4 33 9 15
13 6 12 -25z m68 0 c-3 -8 -6 -5 -6 6 -1 11 2 17 5 13 3 -3 4 -12 1 -19z
m2729 -19 c115 -22 244 -47 287 -55 81 -14 132 -33 92 -34 -33 0 -599 112
-609 121 -16 15 10 11 230 -32z m-4569 -1 c-3 -8 -6 -5 -6 6 -1 11 2 17 5 13
3 -3 4 -12 1 -19z m841 -24 c53 -3 59 -26 7 -26 -31 0 -66 37 -57 60 5 14 7
12 12 -8 5 -19 13 -25 38 -26z m79 9 c-3 -10 -5 -4 -5 12 0 17 2 24 5 18 2 -7
2 -21 0 -30z m-991 -19 c-4 -9 -9 -15 -11 -12 -3 3 -3 13 1 22 4 9 9 15 11 12
3 -3 3 -13 -1 -22z m807 6 c3 -11 1 -23 -4 -26 -5 -3 -9 -1 -9 5 0 5 -3 16 -6
25 -3 9 -2 16 4 16 5 0 12 -9 15 -20z m4262 10 c3 -5 2 -10 -4 -10 -5 0 -13 5
-16 10 -3 6 -2 10 4 10 5 0 13 -4 16 -10z m-3830 -9 c3 -5 1 -12 -5 -16 -5 -3
-10 1 -10 9 0 18 6 21 15 7z m92 -53 c-2 -13 -4 -3 -4 22 0 25 2 35 4 23 2
-13 2 -33 0 -45z m-580 20 c-3 -7 -5 -2 -5 12 0 14 2 19 5 13 2 -7 2 -19 0
-25z m-3572 2 c-4 -6 -8 -63 -10 -128 -5 -201 -58 -345 -167 -458 -33 -34 -59
-66 -58 -70 1 -5 -4 -10 -11 -13 -8 -2 -9 1 -4 10 5 8 4 11 -1 6 -5 -5 -9 -13
-9 -18 0 -28 -132 -105 -150 -87 -3 3 -1 17 4 32 6 14 7 26 2 26 -5 0 -12 -10
-17 -22 -6 -17 -9 -6 -11 41 -9 156 123 446 270 589 59 59 185 130 162 92z
m4076 -13 c-10 -9 -11 -8 -5 6 3 10 9 15 12 12 3 -3 0 -11 -7 -18z m-1278 -7
c-3 -11 -7 -20 -9 -20 -2 0 -4 9 -4 20 0 11 4 20 9 20 5 0 7 -9 4 -20z m-2953
7 c0 -2 -15 -16 -32 -33 l-33 -29 29 33 c28 30 36 37 36 29z m3878 -23 c-2
-23 -4 -23 -15 -8 -13 17 -9 34 7 34 6 0 9 -12 8 -26z m292 16 c0 -5 -4 -10
-10 -10 -5 0 -10 5 -10 10 0 6 5 10 10 10 6 0 10 -4 10 -10z m269 -32 c1 -5
-3 -8 -8 -8 -11 0 -21 37 -13 45 6 5 20 -19 21 -37z m-982 0 c-3 -7 -5 -2 -5
12 0 14 2 19 5 13 2 -7 2 -19 0 -25z m493 2 c0 -16 -4 -30 -8 -30 -5 0 -7 14
-4 30 2 17 6 30 8 30 2 0 4 -13 4 -30z m527 -17 c-3 -10 -5 -2 -5 17 0 19 2
27 5 18 2 -10 2 -26 0 -35z m-1107 6 c0 -10 -4 -19 -10 -19 -5 0 -10 12 -10
26 0 14 4 23 10 19 6 -3 10 -15 10 -26z m4693 24 c-7 -2 -21 -2 -30 0 -10 3
-4 5 12 5 17 0 24 -2 18 -5z m-3383 -13 c0 -5 -5 -10 -11 -10 -5 0 -7 5 -4 10
3 6 8 10 11 10 2 0 4 -4 4 -10z m3433 3 c-7 -2 -19 -2 -25 0 -7 3 -2 5 12 5
14 0 19 -2 13 -5z m102 -17 c33 -8 49 -14 35 -14 -28 0 -133 25 -110 26 8 1
42 -5 75 -12z m-5098 -33 c-3 -10 -5 -4 -5 12 0 17 2 24 5 18 2 -7 2 -21 0
-30z m1193 27 c0 -5 -8 -10 -17 -10 -15 0 -16 2 -3 10 19 12 20 12 20 0z m292
-53 c1 -31 -1 -59 -5 -63 -4 -4 -7 23 -7 61 0 81 9 83 12 2z m-1675 1 c-2 -13
-4 -5 -4 17 -1 22 1 32 4 23 2 -10 2 -28 0 -40z m-2987 38 c0 -2 -8 -10 -17
-17 -16 -13 -17 -12 -4 4 13 16 21 21 21 13z m4272 -28 c-9 -9 -12 -7 -12 12
0 19 3 21 12 12 9 -9 9 -15 0 -24z m468 -13 c0 -26 -4 -33 -18 -32 -12 0 -18
10 -19 26 -2 23 -1 24 7 6 9 -22 13 -13 10 24 -1 14 2 21 9 17 6 -4 11 -22 11
-41z m74 30 c3 -8 1 -15 -4 -15 -6 0 -10 7 -10 15 0 8 2 15 4 15 2 0 6 -7 10
-15z m3659 -7 c28 -6 47 -13 41 -15 -6 -2 -49 6 -95 17 -85 20 -42 19 54 -2z
m-5436 -20 c-3 -7 -5 -2 -5 12 0 14 2 19 5 13 2 -7 2 -19 0 -25z m363 -10 c0
-25 -4 -38 -9 -32 -8 8 -4 74 5 74 2 0 4 -19 4 -42z m267 20 c-3 -8 -6 -5 -6
6 -1 11 2 17 5 13 3 -3 4 -12 1 -19z m223 12 c0 -5 -9 -10 -20 -10 -11 0 -20
5 -20 10 0 6 9 10 20 10 11 0 20 -4 20 -10z m527 -27 c-3 -10 -5 -4 -5 12 0
17 2 24 5 18 2 -7 2 -21 0 -30z m191 7 c16 -1 16 -2 0 -14 -10 -7 -15 -16 -11
-19 3 -4 1 -7 -5 -7 -7 0 -12 5 -12 10 0 6 -7 10 -15 10 -8 0 -15 7 -15 15 0
16 15 21 23 8 2 -5 3 -3 1 4 -1 6 0 14 4 18 4 4 8 0 10 -9 2 -9 11 -16 20 -16z
m-5883 -8 c-3 -3 -11 0 -18 7 -9 10 -8 11 6 5 10 -3 15 -9 12 -12z m5623 -22
c0 -22 -3 -40 -9 -40 -10 0 -13 63 -2 73 10 11 11 9 11 -33z m-5691 -7 c-3
-10 -5 -4 -5 12 0 17 2 24 5 18 2 -7 2 -21 0 -30z m5380 15 c1 -11 8 -25 15
-29 11 -7 11 -9 0 -9 -8 0 -10 -5 -6 -12 6 -10 4 -10 -8 0 -11 9 -18 10 -23 2
-9 -14 -22 -13 -22 3 0 6 -4 21 -9 31 -5 13 -4 17 4 12 6 -3 17 0 24 8 18 21
23 20 25 -6z m43 12 c0 -5 -2 -10 -4 -10 -3 0 -8 5 -11 10 -3 6 -1 10 4 10 6
0 11 -4 11 -10z m-783 -22 c-3 -8 -6 -5 -6 6 -1 11 2 17 5 13 3 -3 4 -12 1
-19z m-234 -25 c4 -19 2 -33 -3 -33 -6 0 -10 17 -10 37 0 43 5 41 13 -4z m610
-6 c-9 -16 -24 9 -17 28 7 18 8 18 14 -1 4 -10 5 -23 3 -27z m292 33 c3 -5 1
-10 -4 -10 -6 0 -11 5 -11 10 0 6 2 10 4 10 3 0 8 -4 11 -10z m335 -30 c-5
-22 -8 -27 -9 -13 -1 21 9 56 14 51 2 -2 0 -19 -5 -38z m195 30 c3 -5 1 -10
-4 -10 -6 0 -11 5 -11 10 0 6 2 10 4 10 3 0 8 -4 11 -10z m332 -12 c-3 -8 -6
-5 -6 6 -1 11 2 17 5 13 3 -3 4 -12 1 -19z m124 -21 c-8 -8 -11 -3 -11 19 1
25 2 27 11 11 8 -14 8 -22 0 -30z m-1791 -4 c0 -19 -3 -24 -10 -17 -6 6 -8 18
-4 27 9 24 14 21 14 -10z m95 17 c3 -5 1 -10 -4 -10 -6 0 -11 5 -11 10 0 6 2
10 4 10 3 0 8 -4 11 -10z m265 1 c0 -6 -4 -13 -10 -16 -5 -3 -10 1 -10 9 0 9
5 16 10 16 6 0 10 -4 10 -9z m80 -7 c0 -2 -9 -4 -21 -4 -11 0 -18 4 -14 10 5
8 35 3 35 -6z m175 6 c3 -5 -1 -10 -10 -10 -9 0 -13 5 -10 10 3 6 8 10 10 10
2 0 7 -4 10 -10z m90 0 c3 -5 1 -10 -4 -10 -6 0 -11 5 -11 10 0 6 2 10 4 10 3
0 8 -4 11 -10z m259 -2 c-3 -4 -15 -8 -27 -8 -15 0 -18 3 -9 8 17 11 43 11 36
0z m881 3 c3 -5 1 -12 -5 -16 -5 -3 -10 1 -10 9 0 18 6 21 15 7z m-6235 -27
c0 -2 -9 0 -20 6 -11 6 -20 13 -20 16 0 2 9 0 20 -6 11 -6 20 -13 20 -16z
m4854 -6 c-9 -14 -23 2 -17 18 4 12 8 13 14 3 4 -7 5 -17 3 -21z m606 -16 c0
-13 -4 -20 -10 -17 -5 3 -10 21 -10 38 0 24 3 28 10 17 5 -8 10 -25 10 -38z
m211 -15 c-8 -8 -11 0 -10 29 1 39 1 39 11 11 7 -21 7 -32 -1 -40z m2392 32
c11 -15 17 -33 14 -40 -4 -10 -8 -7 -12 9 -7 21 -11 24 -37 26 -7 1 -18 7 -24
15 -9 12 -14 11 -32 -7 -16 -16 -22 -18 -22 -7 0 41 82 44 113 4z m-8127 -10
c3 -6 -5 -3 -20 6 -14 10 -26 19 -26 22 0 7 39 -17 46 -28z m4691 9 c-3 -8 -6
-5 -6 6 -1 11 2 17 5 13 3 -3 4 -12 1 -19z m568 2 c-2 -4 -19 -6 -37 -4 -47 4
-48 6 -8 13 38 8 53 5 45 -9z m530 11 c3 -5 1 -12 -5 -16 -5 -3 -10 1 -10 9 0
18 6 21 15 7z m-652 -16 c4 -8 2 -17 -3 -20 -6 -4 -10 3 -10 14 0 25 6 27 13
6z m560 -5 c-3 -11 0 -26 6 -34 10 -12 8 -13 -8 -9 -25 6 -31 63 -7 63 9 0 12
-7 9 -20z m425 -30 c14 0 14 -1 0 -12 -9 -7 -18 -20 -20 -28 -3 -8 -8 4 -12
27 -4 23 -4 48 1 55 5 9 9 4 11 -14 2 -18 9 -28 20 -28z m62 46 c0 -11 -19
-15 -25 -6 -3 5 1 10 9 10 9 0 16 -2 16 -4z m-1903 -38 c-3 -7 -5 -2 -5 12 0
14 2 19 5 13 2 -7 2 -19 0 -25z m153 12 c0 -5 -4 -10 -10 -10 -5 0 -10 5 -10
10 0 6 5 10 10 10 6 0 10 -4 10 -10z m1020 0 c0 -5 -4 -10 -10 -10 -5 0 -10 5
-10 10 0 6 5 10 10 10 6 0 10 -4 10 -10z m550 0 c0 -5 -5 -10 -11 -10 -5 0 -7
5 -4 10 3 6 8 10 11 10 2 0 4 -4 4 -10z m270 0 c0 -13 -37 -50 -50 -50 -5 0
-10 11 -10 25 0 23 2 24 20 15 16 -9 20 -8 20 5 0 8 5 15 10 15 6 0 10 -4 10
-10z m-6203 -32 c-3 -8 -6 -5 -6 6 -1 11 2 17 5 13 3 -3 4 -12 1 -19z m5525
-15 c-5 -27 -5 -27 -14 -4 -8 24 -2 45 11 36 5 -2 6 -17 3 -32z m-752 17 c0
-5 -2 -10 -4 -10 -3 0 -8 5 -11 10 -3 6 -1 10 4 10 6 0 11 -4 11 -10z m-153
-32 c-3 -8 -6 -5 -6 6 -1 11 2 17 5 13 3 -3 4 -12 1 -19z m630 0 c-3 -8 -6 -5
-6 6 -1 11 2 17 5 13 3 -3 4 -12 1 -19z m2676 7 c-3 -9 -8 -14 -10 -11 -3 3
-2 9 2 15 9 16 15 13 8 -4z m-3239 -38 c8 -6 7 -10 -1 -14 -7 -2 -13 -12 -14
-21 0 -13 -3 -11 -9 4 -7 18 -7 41 0 64 1 3 4 -2 7 -10 3 -8 11 -19 17 -23z
m910 12 c-3 -5 -10 -7 -15 -3 -5 3 -7 10 -3 15 3 5 10 7 15 3 5 -3 7 -10 3
-15z m316 11 c0 -5 -5 -10 -11 -10 -5 0 -7 5 -4 10 3 6 8 10 11 10 2 0 4 -4 4
-10z m-530 -31 c0 -11 5 -17 10 -14 6 3 10 2 10 -3 0 -6 -13 -15 -30 -21 -34
-11 -39 -1 -19 43 13 28 29 25 29 -5z m327 9 c-3 -8 -6 -5 -6 6 -1 11 2 17 5
13 3 -3 4 -12 1 -19z m2373 -10 c0 -13 -23 -5 -28 10 -2 7 2 10 12 6 9 -3 16
-11 16 -16z m-8136 4 c2 -4 -4 -8 -14 -8 -10 0 -16 4 -14 8 3 4 9 8 14 8 5 0
11 -4 14 -8z m638 -53 c-33 -96 -55 -262 -50 -378 6 -116 26 -184 74 -249 l27
-37 -36 34 c-117 111 -126 363 -21 649 23 62 28 46 6 -19z m3688 51 c0 -5 -7
-7 -15 -4 -8 4 -15 8 -15 10 0 2 7 4 15 4 8 0 15 -4 15 -10z m1230 0 c0 -5 -4
-10 -10 -10 -5 0 -10 5 -10 10 0 6 5 10 10 10 6 0 10 -4 10 -10z m597 -37 c-3
-10 -5 -4 -5 12 0 17 2 24 5 18 2 -7 2 -21 0 -30z m-1751 -37 c-2 -6 -5 -3 -5
7 -1 10 -9 17 -21 17 -17 0 -19 3 -8 19 11 18 12 18 25 -7 8 -14 12 -30 9 -36z
m184 54 c0 -5 -4 -10 -10 -10 -5 0 -10 5 -10 10 0 6 5 10 10 10 6 0 10 -4 10
-10z m1206 -17 c28 5 37 -4 28 -27 -5 -14 -8 -14 -21 -1 -8 8 -21 15 -29 15
-8 0 -14 9 -13 23 1 18 2 19 6 4 4 -14 11 -18 29 -14z m-489 -15 c-3 -7 -5 -2
-5 12 0 14 2 19 5 13 2 -7 2 -19 0 -25z m220 0 c-3 -7 -5 -2 -5 12 0 14 2 19
5 13 2 -7 2 -19 0 -25z m-1260 0 c-3 -8 -6 -5 -6 6 -1 11 2 17 5 13 3 -3 4
-12 1 -19z m4743 18 c0 -14 -21 -58 -26 -54 -8 8 7 58 17 58 5 0 9 -2 9 -4z
m-4160 -16 c0 -5 -5 -10 -11 -10 -5 0 -7 5 -4 10 3 6 8 10 11 10 2 0 4 -4 4
-10z m74 2 c2 -4 1 -14 -5 -22 -7 -13 -9 -12 -9 2 0 9 -6 19 -12 21 -8 3 -7 6
4 6 9 1 19 -3 22 -7z m4139 -17 c-3 -8 0 -15 6 -15 6 0 11 5 11 12 0 6 2 9 5
6 9 -9 -6 -38 -20 -38 -7 0 -15 7 -19 15 -7 19 3 47 15 40 4 -3 6 -12 2 -20z
m-3823 -7 c0 -18 -2 -20 -9 -8 -6 8 -7 18 -5 22 9 14 14 9 14 -14z m1261 -3
c68 -13 331 -65 584 -114 253 -50 667 -131 920 -180 253 -50 669 -131 925
-181 256 -50 600 -117 765 -150 165 -32 487 -96 715 -140 228 -45 470 -92 536
-106 67 -13 125 -24 128 -24 4 0 6 -10 4 -22 -4 -27 -8 -27 -133 -4 -109 19
-185 21 -185 4 0 -7 -7 -3 -15 9 -15 22 -98 43 -112 29 -4 -3 6 -20 22 -36 16
-17 24 -30 18 -30 -6 0 -25 18 -42 39 -18 22 -47 45 -64 51 -44 15 -237 56
-747 156 -239 47 -561 110 -715 141 -154 30 -323 63 -375 73 -52 10 -201 39
-330 65 -129 25 -257 50 -285 55 -27 5 -117 23 -200 40 -82 17 -188 37 -235
45 -47 8 -126 24 -175 34 -97 22 -392 77 -598 113 -103 19 -131 20 -147 10
-26 -16 -27 -16 -33 10 -4 12 -9 19 -12 16 -4 -3 -34 0 -68 8 -120 27 -146 36
-141 49 3 7 -2 15 -10 18 -11 4 -13 1 -9 -10 5 -12 0 -14 -23 -9 -16 3 -47 8
-69 12 -45 7 -65 20 -65 40 0 19 28 18 171 -11z m-2164 -7 c-3 -8 -6 -5 -6 6
-1 11 2 17 5 13 3 -3 4 -12 1 -19z m223 7 c0 -8 -2 -15 -4 -15 -2 0 -6 7 -10
15 -3 8 -1 15 4 15 6 0 10 -7 10 -15z m390 -1 c0 -8 -4 -12 -10 -9 -5 3 -10
10 -10 16 0 5 5 9 10 9 6 0 10 -7 10 -16z m391 3 c-1 -4 -1 -14 -1 -23 0 -8
-4 -12 -10 -9 -13 8 -13 48 1 43 6 -2 10 -7 10 -11z m142 -34 c3 -29 1 -43 -7
-43 -7 0 -10 16 -8 46 5 54 7 53 15 -3z m77 37 c0 -5 -4 -10 -10 -10 -5 0 -10
5 -10 10 0 6 5 10 10 10 6 0 10 -4 10 -10z m50 3 c0 -5 -5 -15 -10 -23 -8 -12
-10 -11 -10 8 0 12 5 22 10 22 6 0 10 -3 10 -7z m3562 -5 c15 3 17 -2 12 -27
-8 -40 11 -41 25 -1 10 31 35 40 44 16 8 -20 -3 -56 -17 -56 -6 -1 -24 -12
-41 -25 -30 -24 -27 -43 6 -49 30 -4 50 -22 43 -39 -3 -9 -12 -17 -19 -17 -7
0 -18 -7 -25 -15 -14 -17 -50 -20 -50 -5 0 6 -7 10 -15 10 -14 0 -20 18 -15
50 1 12 -1 13 -11 3 -16 -16 -45 -17 -55 -2 -3 6 1 18 10 27 13 14 19 14 41 2
23 -12 28 -12 35 0 6 8 10 22 10 30 0 8 3 25 6 38 6 19 3 23 -12 20 -11 -2
-19 3 -18 10 3 40 5 43 17 35 6 -4 20 -6 29 -5z m-3952 -18 c0 -5 -8 -10 -17
-10 -15 0 -16 2 -3 10 19 12 20 12 20 0z m312 -25 c2 -21 0 -35 -7 -35 -7 0
-9 14 -7 35 2 19 5 35 7 35 2 0 5 -16 7 -35z m148 15 c0 -11 -4 -20 -10 -20
-5 0 -10 9 -10 20 0 11 5 20 10 20 6 0 10 -9 10 -20z m122 -20 c4 -27 2 -30
-21 -30 -23 0 -24 1 -6 14 12 8 16 20 12 35 -3 11 -2 19 3 16 4 -3 10 -18 12
-35z m312 -1 c1 -17 -2 -33 -6 -36 -5 -2 -8 15 -8 38 0 48 13 46 14 -2z m4253
35 c-3 -3 -12 -4 -19 -1 -8 3 -5 6 6 6 11 1 17 -2 13 -5z m-5657 -8 c0 -3 -4
-8 -10 -11 -5 -3 -10 -1 -10 4 0 6 5 11 10 11 6 0 10 -2 10 -4z m1360 -6 c0
-5 -4 -10 -9 -10 -6 0 -13 5 -16 10 -3 6 1 10 9 10 9 0 16 -4 16 -10z m3241
-34 c16 -18 9 -27 -11 -16 -11 6 -20 19 -20 29 0 25 14 37 18 14 2 -10 8 -22
13 -27z m64 2 c-4 -43 -3 -42 -19 -28 -12 9 -13 17 -4 36 16 34 26 30 23 -8z
m946 16 c9 -12 23 -14 50 -10 31 5 41 2 60 -19 13 -14 29 -25 34 -25 15 -1 40
-40 54 -83 16 -47 9 -58 -15 -22 -42 65 -240 119 -307 84 -12 -7 -40 -26 -61
-42 -33 -26 -37 -28 -27 -9 6 12 16 22 21 22 6 0 10 6 10 13 0 22 47 59 103
84 63 27 61 27 78 7z m-5321 -14 c0 -11 -4 -20 -10 -20 -5 0 -10 2 -10 4 0 2
-3 11 -6 20 -4 11 -1 16 10 16 9 0 16 -8 16 -20z m1157 -12 c-3 -7 -5 -2 -5
12 0 14 2 19 5 13 2 -7 2 -19 0 -25z m248 22 c3 -5 2 -10 -4 -10 -5 0 -13 5
-16 10 -3 6 -2 10 4 10 5 0 13 -4 16 -10z m-171 -15 c3 -8 1 -15 -4 -15 -6 0
-10 7 -10 15 0 8 2 15 4 15 2 0 6 -7 10 -15z m-1679 -5 c18 -8 17 -9 -7 -9
-16 -1 -28 4 -28 9 0 12 8 12 35 0z m350 0 c3 -5 1 -10 -4 -10 -6 0 -11 5 -11
10 0 6 2 10 4 10 3 0 8 -4 11 -10z m1565 -6 c0 -2 -7 -4 -15 -4 -8 0 -15 4
-15 10 0 5 7 7 15 4 8 -4 15 -8 15 -10z m-2013 0 c-3 -3 -12 -4 -19 -1 -8 3
-5 6 6 6 11 1 17 -2 13 -5z m1190 0 c-3 -3 -12 -4 -19 -1 -8 3 -5 6 6 6 11 1
17 -2 13 -5z m406 -1 c-24 -2 -62 -2 -85 0 -24 2 -5 4 42 4 47 0 66 -2 43 -4z
m-4560 -70 c-5 -11 -3 -14 6 -9 9 6 8 -1 -3 -20 -28 -53 -56 -89 -68 -89 -6 0
-13 -6 -16 -14 -3 -9 0 -11 9 -6 21 14 -26 -47 -73 -92 -40 -39 -114 -80 -125
-69 -4 4 95 66 107 66 3 0 23 20 43 45 47 56 37 58 -23 5 -48 -43 -55 -46 -65
-29 -4 6 22 40 56 77 35 37 78 88 96 114 21 32 37 46 47 42 9 -3 12 -12 9 -21z
m5407 -25 c72 -1 100 -4 104 -14 3 -7 -3 -15 -12 -18 -30 -8 -222 -5 -222 4 0
19 13 39 22 34 5 -3 54 -6 108 -6z m-324 -7 c-4 -5 -39 -27 -79 -49 -39 -23
-90 -57 -111 -76 -39 -35 -76 -45 -104 -27 -17 10 -5 20 73 54 33 14 96 44
140 66 89 45 88 45 81 32z m3515 -48 c-8 -15 -10 -15 -11 -2 0 17 10 32 18 25
2 -3 -1 -13 -7 -23z m-121 -4 c-7 -11 -14 -19 -16 -16 -7 7 7 37 17 37 6 0 5
-9 -1 -21z m26 -4 c-9 -9 -16 -13 -16 -8 0 12 22 34 28 28 2 -2 -3 -11 -12
-20z m74 1 c0 -16 -24 -38 -33 -30 -8 9 11 44 23 44 6 0 10 -6 10 -14z m100
-36 c0 -5 -7 -10 -16 -10 -8 0 -12 5 -9 10 3 6 10 10 16 10 5 0 9 -4 9 -10z
m160 -15 c0 -9 6 -12 15 -9 11 5 13 2 9 -10 -7 -19 -9 -19 -34 -6 -11 6 -17
17 -14 25 8 19 24 19 24 0z m-100 -8 c0 -5 7 -6 16 -3 9 3 12 2 9 -5 -4 -5 9
-25 28 -42 21 -19 38 -46 42 -64 l7 -33 -42 0 c-48 0 -100 31 -100 59 0 10 -6
24 -14 30 -11 9 -15 46 -7 68 3 7 61 -2 61 -10z m176 -24 c-10 -10 -19 5 -10
18 6 11 8 11 12 0 2 -7 1 -15 -2 -18z m214 -44 c0 -11 -4 -17 -10 -14 -5 3
-10 13 -10 21 0 8 5 14 10 14 6 0 10 -9 10 -21z m68 -14 c-3 -3 -9 2 -12 12
-6 14 -5 15 5 6 7 -7 10 -15 7 -18z m-9144 -52 c-36 -49 -56 -64 -68 -53 -12
11 17 45 59 71 41 26 41 24 9 -18z m-407 -69 c-3 -3 -12 -4 -19 -1 -8 3 -5 6
6 6 11 1 17 -2 13 -5z m3250 -41 c-3 -10 -5 -4 -5 12 0 17 2 24 5 18 2 -7 2
-21 0 -30z m6424 -460 c13 -16 12 -17 -3 -4 -10 7 -18 15 -18 17 0 8 8 3 21
-13z m-3 -26 c16 -15 22 -17 22 -6 0 8 13 -4 28 -27 15 -23 39 -59 54 -80 26
-38 52 -121 31 -99 -23 23 -183 233 -183 239 0 9 19 -2 48 -27z"/>
<path d="M11740 4198 c0 -5 26 -7 58 -7 61 1 55 6 -15 11 -24 2 -43 0 -43 -4z"/>
<path d="M11745 4150 c-3 -5 3 -10 14 -10 12 0 21 5 21 10 0 6 -6 10 -14 10
-8 0 -18 -4 -21 -10z"/>
<path d="M12333 4023 c9 -2 25 -2 35 0 9 3 1 5 -18 5 -19 0 -27 -2 -17 -5z"/>
<path d="M12275 4010 c-3 -5 1 -10 10 -10 9 0 13 5 10 10 -3 6 -8 10 -10 10
-2 0 -7 -4 -10 -10z"/>
<path d="M13225 3520 c-3 -5 1 -10 10 -10 9 0 13 5 10 10 -3 6 -8 10 -10 10
-2 0 -7 -4 -10 -10z"/>
<path d="M12400 3489 c0 -5 5 -7 10 -4 6 3 10 8 10 11 0 2 -4 4 -10 4 -5 0
-10 -5 -10 -11z"/>
<path d="M12460 3495 c0 -2 8 -9 18 -14 14 -8 19 -6 19 5 0 7 -9 14 -19 14
-10 0 -18 -2 -18 -5z"/>
<path d="M12525 3490 c-11 -5 -14 -9 -7 -9 7 -1 10 -5 7 -11 -4 -6 7 -10 24
-10 17 0 31 4 31 8 0 5 17 13 38 19 l37 10 -55 1 c-30 0 -64 -3 -75 -8z"/>
<path d="M12778 3493 c12 -2 32 -2 45 0 12 2 2 4 -23 4 -25 0 -35 -2 -22 -4z"/>
<path d="M12863 3493 c9 -2 23 -2 30 0 6 3 -1 5 -18 5 -16 0 -22 -2 -12 -5z"/>
<path d="M13323 3493 c9 -2 23 -2 30 0 6 3 -1 5 -18 5 -16 0 -22 -2 -12 -5z"/>
<path d="M13450 3490 c14 -9 240 -3 249 6 2 2 -56 4 -130 4 -88 0 -129 -4
-119 -10z"/>
<path d="M12225 3470 c-28 -7 -27 -8 13 -9 27 -1 41 3 37 9 -7 11 -7 11 -50 0z"/>
<path d="M12308 3468 c-14 -4 -1 -6 36 -7 33 -1 56 2 52 7 -9 9 -57 9 -88 0z"/>
<path d="M13835 3470 c-15 -7 -10 -9 23 -9 23 -1 42 4 42 9 0 12 -37 12 -65 0z"/>
<path d="M13457 3452 c-23 -5 -12 -22 15 -22 15 0 19 -5 15 -20 -4 -15 0 -20
14 -20 10 0 21 1 23 3 8 5 45 -36 40 -44 -3 -5 6 -9 20 -9 23 0 25 2 14 19 -7
11 -21 22 -32 25 -15 4 -17 8 -7 19 9 12 8 16 -8 20 -14 3 -18 1 -14 -9 7 -19
-2 -18 -22 2 -12 12 -13 19 -5 24 14 9 -26 18 -53 12z"/>
<path d="M13371 3428 c-1 -40 1 -43 27 -40 15 2 22 -3 23 -15 0 -15 2 -15 7
-3 4 8 13 15 20 15 6 0 11 5 10 10 -2 6 -17 9 -34 7 -27 -3 -33 1 -42 25 l-10
28 -1 -27z"/>
<path d="M13420 3425 c0 -8 4 -15 10 -15 5 0 7 7 4 15 -4 8 -8 15 -10 15 -2 0
-4 -7 -4 -15z"/>
<path d="M12645 3420 c-3 -5 -1 -10 4 -10 6 0 11 5 11 10 0 6 -2 10 -4 10 -3
0 -8 -4 -11 -10z"/>
<path d="M12557 3396 c-13 -10 -27 -12 -49 -5 -17 4 -35 6 -40 3 -15 -10 -78
-12 -72 -3 11 18 -9 8 -27 -13 -20 -23 -24 -44 -10 -52 5 -3 8 2 7 12 -1 19
-7 19 212 21 78 0 142 4 142 9 0 4 -26 12 -57 19 -32 6 -65 14 -73 17 -8 3
-23 -1 -33 -8z"/>
<path d="M13625 3399 c-17 -6 -17 -8 -2 -8 9 -1 17 -8 17 -16 0 -10 10 -15 30
-15 17 0 30 5 30 10 0 6 -11 10 -24 10 -14 0 -26 6 -28 14 -2 9 -9 11 -23 5z"/>
<path d="M12063 3393 c9 -2 25 -2 35 0 9 3 1 5 -18 5 -19 0 -27 -2 -17 -5z"/>
<path d="M12158 3393 c23 -2 61 -2 85 0 23 2 4 4 -43 4 -47 0 -66 -2 -42 -4z"/>
<path d="M12843 3393 c9 -2 23 -2 30 0 6 3 -1 5 -18 5 -16 0 -22 -2 -12 -5z"/>
<path d="M13890 3390 c19 -13 30 -13 30 0 0 6 -10 10 -22 10 -19 0 -20 -2 -8
-10z"/>
<path d="M12730 3370 c0 -5 18 -10 40 -10 22 0 40 5 40 10 0 6 -18 10 -40 10
-22 0 -40 -4 -40 -10z"/>
<path d="M12905 3370 c-4 -6 6 -10 22 -10 22 0 25 2 13 10 -19 12 -27 12 -35
0z"/>
<path d="M12975 3370 c-4 -6 7 -10 24 -10 17 0 31 5 31 10 0 6 -11 10 -24 10
-14 0 -28 -4 -31 -10z"/>
<path d="M13260 3370 c0 -13 89 -10 96 2 3 4 -18 8 -45 8 -29 0 -51 -5 -51
-10z"/>
<path d="M13955 3369 c-9 -14 -2 -20 14 -10 8 6 9 11 3 15 -6 3 -14 1 -17 -5z"/>
<path d="M12852 3360 c-18 -4 -36 -11 -40 -15 -4 -4 6 -5 22 -1 27 7 28 6 15
-10 -12 -16 -12 -17 3 -11 10 3 20 2 23 -3 6 -10 70 -8 81 3 7 7 -10 11 -30 8
-20 -4 -47 12 -42 25 3 8 4 14 3 13 -1 -1 -17 -5 -35 -9z"/>
<path d="M13105 3350 c-4 -6 3 -10 14 -10 25 0 27 6 6 13 -8 4 -17 2 -20 -3z"/>
<path d="M11600 3324 c0 -8 5 -12 10 -9 6 4 8 11 5 16 -9 14 -15 11 -15 -7z"/>
<path d="M12983 3323 c8 -7 77 -6 85 2 3 3 -16 5 -43 5 -27 0 -45 -3 -42 -7z"/>
<path d="M13640 3323 c0 -7 -11 -13 -25 -13 -28 0 -35 -19 -7 -21 9 -1 21 -1
25 0 5 1 6 -3 3 -8 -4 -5 -2 -12 3 -15 14 -9 24 31 12 51 -6 10 -11 12 -11 6z"/>
<path d="M13680 3300 c0 -5 7 -10 15 -10 8 0 15 -7 15 -15 0 -17 16 -20 25 -5
3 5 -8 16 -25 25 -17 9 -30 11 -30 5z"/>
<path d="M13960 3304 c0 -3 7 -12 15 -20 13 -14 15 -13 15 5 0 12 -6 21 -15
21 -8 0 -15 -3 -15 -6z"/>
<path d="M12419 3279 c-19 -12 23 -19 56 -10 l30 8 -38 4 c-20 3 -42 2 -48 -2z"/>
<path d="M13900 3280 c-13 -8 -12 -10 3 -10 9 0 17 5 17 10 0 12 -1 12 -20 0z"/>
<path d="M12910 3271 c0 -5 9 -7 20 -4 11 3 20 7 20 9 0 2 -9 4 -20 4 -11 0
-20 -4 -20 -9z"/>
<path d="M12060 3250 c0 -5 5 -10 10 -10 6 0 10 5 10 10 0 6 -4 10 -10 10 -5
0 -10 -4 -10 -10z"/>
<path d="M12570 3250 c0 -5 9 -10 21 -10 11 0 17 5 14 10 -3 6 -13 10 -21 10
-8 0 -14 -4 -14 -10z"/>
<path d="M11991 3216 c0 -11 3 -15 6 -8 3 7 25 12 56 13 59 1 53 5 -15 12 -44
4 -48 3 -47 -17z"/>
<path d="M13358 3223 c6 -2 18 -2 25 0 6 3 1 5 -13 5 -14 0 -19 -2 -12 -5z"/>
<path d="M13691 3223 c-1 -9 -21 -13 -63 -14 -47 -1 -57 -3 -38 -9 14 -4 46
-8 72 -9 27 -1 48 -6 51 -13 3 -8 6 -5 6 5 1 11 6 15 13 11 7 -4 8 -3 4 4 -4
7 -13 12 -21 12 -7 0 -16 6 -18 13 -4 10 -6 10 -6 0z"/>
<path d="M11765 3200 c3 -5 8 -10 11 -10 2 0 4 5 4 10 0 6 -5 10 -11 10 -5 0
-7 -4 -4 -10z"/>
<path d="M12795 3200 c3 -5 13 -10 21 -10 8 0 14 5 14 10 0 6 -9 10 -21 10
-11 0 -17 -4 -14 -10z"/>
<path d="M13750 3201 c0 -15 18 -22 25 -10 4 5 14 8 22 5 8 -3 11 -1 8 4 -8
13 -55 13 -55 1z"/>
<path d="M13840 3200 c0 -5 9 -10 19 -10 11 0 22 -6 24 -12 4 -10 6 -10 6 0 1
6 10 12 21 12 11 0 20 5 20 10 0 6 -20 10 -45 10 -25 0 -45 -4 -45 -10z"/>
<path d="M11790 3180 c0 -5 5 -10 11 -10 5 0 7 5 4 10 -3 6 -8 10 -11 10 -2 0
-4 -4 -4 -10z"/>
<path d="M12138 3173 c7 -3 16 -2 19 1 4 3 -2 6 -13 5 -11 0 -14 -3 -6 -6z"/>
<path d="M11855 3146 c10 -7 28 -11 39 -9 17 4 18 3 6 -6 -12 -8 -11 -10 8 -8
46 3 12 37 -37 37 -32 0 -33 -1 -16 -14z"/>
<path d="M12080 3149 c0 -5 5 -7 10 -4 6 3 10 8 10 11 0 2 -4 4 -10 4 -5 0
-10 -5 -10 -11z"/>
<path d="M12278 3153 c7 -3 16 -2 19 1 4 3 -2 6 -13 5 -11 0 -14 -3 -6 -6z"/>
<path d="M12665 3150 c3 -5 10 -10 16 -10 5 0 9 5 9 10 0 6 -7 10 -16 10 -8 0
-12 -4 -9 -10z"/>
<path d="M12840 3150 c0 -5 6 -10 14 -10 8 0 18 5 21 10 3 6 -3 10 -14 10 -12
0 -21 -4 -21 -10z"/>
<path d="M12695 3130 c-3 -5 2 -10 12 -10 11 0 23 -4 29 -9 17 -15 91 -29 108
-19 27 15 18 26 -20 25 -19 -1 -38 4 -42 9 -9 14 -79 17 -87 4z"/>
<path d="M12880 3114 c0 -7 -8 -17 -17 -23 -21 -11 -17 -17 20 -26 21 -6 27
-4 27 10 0 11 5 15 14 12 9 -4 12 0 9 13 -6 21 -53 34 -53 14z"/>
<path d="M12281 3101 c-1 -8 -8 -23 -18 -33 -9 -11 -11 -18 -5 -18 7 0 12 5
12 10 0 6 10 10 23 10 12 0 17 3 11 8 -6 4 -14 14 -17 22 -4 12 -6 12 -6 1z"/>
<path d="M12331 3094 c0 -11 3 -14 6 -6 3 7 2 16 -1 19 -3 4 -6 -2 -5 -13z"/>
<path d="M13140 3100 c19 -13 30 -13 30 0 0 6 -10 10 -22 10 -19 0 -20 -2 -8
-10z"/>
<path d="M11975 3080 c3 -5 14 -10 23 -10 15 0 15 2 2 10 -20 13 -33 13 -25 0z"/>
<path d="M12033 3076 c4 -9 -1 -17 -11 -19 -12 -3 -11 -5 6 -6 12 0 22 4 22 9
0 6 8 10 17 10 22 0 8 13 -18 17 -15 2 -20 -1 -16 -11z"/>
<path d="M12176 3081 c-6 -10 33 -23 46 -15 4 3 8 9 8 15 0 12 -47 12 -54 0z"/>
<path d="M12630 3080 c-9 -6 -10 -10 -3 -10 6 0 15 5 18 10 8 12 4 12 -15 0z"/>
<path d="M13080 3076 c0 -9 5 -16 10 -16 6 0 10 4 10 9 0 6 -4 13 -10 16 -5 3
-10 -1 -10 -9z"/>
<path d="M13270 3080 c0 -5 5 -10 10 -10 6 0 10 5 10 10 0 6 -4 10 -10 10 -5
0 -10 -4 -10 -10z"/>
<path d="M13335 3080 c3 -5 10 -10 16 -10 5 0 9 5 9 10 0 6 -7 10 -16 10 -8 0
-12 -4 -9 -10z"/>
<path d="M12920 3059 c0 -5 5 -9 10 -9 6 0 20 -11 32 -25 16 -18 32 -25 59
-25 21 0 40 6 42 13 4 10 6 10 6 0 1 -9 19 -13 57 -13 34 0 53 4 49 10 -3 6 1
10 9 10 9 0 16 5 16 10 0 7 -13 8 -34 4 -19 -3 -42 -1 -52 4 -13 7 -27 6 -47
-5 -21 -10 -32 -12 -40 -4 -6 6 -19 11 -28 11 -10 0 -19 5 -21 11 -5 14 -58
21 -58 8z"/>
<path d="M13216 3060 c-19 -6 -19 -7 -1 -14 10 -3 22 -3 28 3 12 12 -4 20 -27
11z"/>
<path d="M11598 3053 c7 -3 16 -2 19 1 4 3 -2 6 -13 5 -11 0 -14 -3 -6 -6z"/>
<path d="M12138 3053 c6 -2 18 -2 25 0 6 3 1 5 -13 5 -14 0 -19 -2 -12 -5z"/>
<path d="M12343 3053 c9 -2 23 -2 30 0 6 3 -1 5 -18 5 -16 0 -22 -2 -12 -5z"/>
<path d="M12464 3042 c-10 -15 -8 -18 7 -18 10 0 20 8 22 18 3 10 0 18 -7 18
-6 0 -16 -8 -22 -18z"/>
<path d="M12728 3053 c6 -2 12 -11 12 -19 0 -16 36 -19 45 -4 3 6 -1 10 -9 10
-9 0 -16 5 -16 10 0 6 -10 10 -22 9 -13 0 -17 -3 -10 -6z"/>
<path d="M13120 3050 c0 -13 20 -13 40 0 12 8 9 10 -12 10 -16 0 -28 -4 -28
-10z"/>
<path d="M12204 3039 c-9 -15 -2 -18 20 -9 17 6 18 7 3 13 -9 3 -19 2 -23 -4z"/>
<path d="M12068 3033 c7 -3 16 -2 19 1 4 3 -2 6 -13 5 -11 0 -14 -3 -6 -6z"/>
<path d="M12100 3030 c0 -5 7 -10 15 -10 8 0 15 -4 15 -10 0 -5 10 -10 23 -10
19 0 18 2 -11 20 -37 23 -42 24 -42 10z"/>
<path d="M12800 3032 c0 -15 74 -34 120 -30 l44 3 -29 19 c-24 16 -27 16 -16
3 12 -15 10 -16 -20 -10 -19 3 -35 10 -37 15 -5 11 -62 11 -62 0z"/>
<path d="M13195 3010 c-3 -5 1 -10 9 -10 9 0 16 5 16 10 0 6 -4 10 -9 10 -6 0
-13 -4 -16 -10z"/>
<path d="M12203 2983 c15 -2 37 -2 50 0 12 2 0 4 -28 4 -27 0 -38 -2 -22 -4z"/>
<path d="M13233 2983 c9 -2 23 -2 30 0 6 3 -1 5 -18 5 -16 0 -22 -2 -12 -5z"/>
<path d="M11746 2912 c-3 -5 1 -9 9 -9 8 0 12 4 9 9 -3 4 -7 8 -9 8 -2 0 -6
-4 -9 -8z"/>
<path d="M11980 2910 c0 -5 14 -10 30 -10 17 0 30 5 30 10 0 6 -13 10 -30 10
-16 0 -30 -4 -30 -10z"/>
<path d="M11594 2862 c7 -12 133 -14 176 -3 27 7 11 9 -73 10 -60 1 -106 -3
-103 -7z"/>
<path d="M11818 2863 c7 -3 16 -2 19 1 4 3 -2 6 -13 5 -11 0 -14 -3 -6 -6z"/>
<path d="M11665 2789 c-4 -5 5 -9 19 -9 14 0 26 4 26 8 0 11 -39 12 -45 1z"/>
<path d="M11808 2783 c12 -2 32 -2 45 0 12 2 2 4 -23 4 -25 0 -35 -2 -22 -4z"/>
<path d="M12023 2763 c9 -2 23 -2 30 0 6 3 -1 5 -18 5 -16 0 -22 -2 -12 -5z"/>
<path d="M12188 2763 c6 -2 18 -2 25 0 6 3 1 5 -13 5 -14 0 -19 -2 -12 -5z"/>
<path d="M12258 2763 c7 -3 16 -2 19 1 4 3 -2 6 -13 5 -11 0 -14 -3 -6 -6z"/>
<path d="M12863 2763 c9 -2 23 -2 30 0 6 3 -1 5 -18 5 -16 0 -22 -2 -12 -5z"/>
<path d="M13048 2763 c12 -2 30 -2 40 0 9 3 -1 5 -23 4 -22 0 -30 -2 -17 -4z"/>
<path d="M12488 2733 c18 -2 45 -2 60 0 15 2 0 4 -33 4 -33 0 -45 -2 -27 -4z"/>
<path d="M11608 2713 c7 -3 16 -2 19 1 4 3 -2 6 -13 5 -11 0 -14 -3 -6 -6z"/>
<path d="M11938 2713 c7 -3 16 -2 19 1 4 3 -2 6 -13 5 -11 0 -14 -3 -6 -6z"/>
<path d="M12798 2713 c45 -2 119 -2 165 0 45 1 8 3 -83 3 -91 0 -128 -2 -82
-3z"/>
<path d="M12443 2663 c26 -2 67 -2 90 0 23 2 2 3 -48 3 -49 0 -68 -1 -42 -3z"/>
<path d="M15176 3105 c-15 -40 -7 -63 24 -69 17 -3 43 -8 59 -12 24 -4 29 -1
35 18 15 56 10 62 -66 73 -37 6 -46 4 -52 -10z m69 -45 c-5 -8 -11 -8 -17 -2
-6 6 -7 16 -3 22 5 8 11 8 17 2 6 -6 7 -16 3 -22z"/>
<path d="M15323 3053 c-4 -41 1 -42 20 -4 13 26 13 30 -2 34 -12 3 -17 -4 -18
-30z"/>
<path d="M15434 3054 c4 -12 1 -14 -14 -10 -11 3 -29 8 -39 11 -28 8 -47 -28
-25 -46 13 -11 14 -9 9 14 -5 17 -3 27 4 27 6 0 11 -9 11 -19 0 -22 4 -26 41
-34 23 -6 26 -2 36 33 9 37 9 40 -9 40 -14 0 -18 -5 -14 -16z m-4 -34 c0 -5
-4 -10 -9 -10 -6 0 -13 5 -16 10 -3 6 1 10 9 10 9 0 16 -4 16 -10z"/>
<path d="M15685 3048 c-3 -7 -11 -44 -19 -82 l-14 -68 31 5 c18 3 54 15 80 26
45 19 48 23 45 53 -3 28 -8 33 -36 39 -18 4 -41 14 -51 23 -21 19 -30 20 -36
4z"/>
<path d="M15513 3028 c2 -15 0 -25 -4 -22 -5 3 -9 -2 -9 -10 0 -9 6 -16 14
-16 8 0 20 -2 28 -3 7 -2 10 -2 6 0 -12 7 -9 31 5 36 7 3 5 6 -5 6 -9 1 -22 9
-28 19 -10 14 -11 13 -7 -10z"/>
<path d="M15470 3020 c13 -9 13 -11 0 -19 -8 -6 -11 -13 -8 -16 10 -10 25 2
31 25 4 15 0 20 -16 20 -18 0 -19 -2 -7 -10z"/>
<path d="M16040 2939 c0 -5 5 -7 10 -4 6 3 10 8 10 11 0 2 -4 4 -10 4 -5 0
-10 -5 -10 -11z"/>
<path d="M16005 2930 c-3 -5 -1 -10 4 -10 6 0 11 5 11 10 0 6 -2 10 -4 10 -3
0 -8 -4 -11 -10z"/>
<path d="M15930 2886 c0 -2 7 -7 16 -10 8 -3 12 -2 9 4 -6 10 -25 14 -25 6z"/>
<path d="M16390 2869 c-6 -10 -10 -29 -10 -42 0 -19 6 -26 31 -31 64 -13 88
-8 95 19 10 40 -1 51 -55 62 -46 9 -53 8 -61 -8z m62 -34 c0 -5 -5 -11 -11
-13 -6 -2 -11 4 -11 13 0 9 5 15 11 13 6 -2 11 -8 11 -13z"/>
<path d="M16540 2842 c0 -9 -3 -28 -7 -41 -4 -17 -3 -22 5 -17 7 4 12 18 12
32 0 13 5 24 10 24 6 0 10 -16 10 -35 0 -19 5 -35 11 -35 6 0 9 15 7 36 -2 27
-9 39 -25 45 -18 7 -23 5 -23 -9z"/>
<path d="M18204 3025 c-4 -8 -3 -23 0 -32 6 -15 8 -15 23 -1 16 17 12 48 -7
48 -6 0 -13 -7 -16 -15z"/>
<path d="M16875 2780 c-4 -12 -5 -24 -2 -27 3 -2 8 5 12 17 4 12 5 24 2 27 -3
2 -8 -5 -12 -17z"/>
<path d="M16860 2713 c0 -13 5 -23 10 -23 13 0 13 11 0 30 -8 12 -10 11 -10
-7z"/>
<path d="M17393 2654 c-11 -29 11 -49 53 -49 37 0 39 2 39 30 0 28 -3 30 -43
33 -32 2 -44 -1 -49 -14z m61 -19 c-4 -8 -10 -12 -15 -9 -11 6 -2 24 11 24 5
0 7 -7 4 -15z"/>
<path d="M17506 2622 c-4 -13 -5 -26 -2 -29 10 -11 18 4 14 29 l-4 23 -8 -23z"/>
<path d="M17530 2630 c0 -5 5 -10 11 -10 5 0 7 5 4 10 -3 6 -8 10 -11 10 -2 0
-4 -4 -4 -10z"/>
<path d="M17556 2611 c-16 -18 -12 -31 10 -31 13 0 26 38 14 45 -4 2 -15 -4
-24 -14z"/>
<path d="M17606 2615 c4 -8 11 -15 16 -15 5 0 18 -10 29 -22 18 -22 20 -22 30
-5 5 9 14 15 20 12 5 -4 9 -3 9 2 0 4 -11 13 -25 19 -19 9 -25 9 -27 -3 -2
-11 -8 -10 -25 6 -26 25 -35 27 -27 6z"/>
<path d="M17728 2587 c-3 -19 -2 -25 4 -19 6 6 8 18 6 28 -3 14 -5 12 -10 -9z"/>
<path d="M17600 2586 c0 -2 7 -7 16 -10 8 -3 12 -2 9 4 -6 10 -25 14 -25 6z"/>
<path d="M7796 2669 c-9 -18 -14 -34 -12 -37 3 -2 12 10 21 28 9 18 14 34 12
37 -3 2 -12 -10 -21 -28z"/>
<path d="M18035 2509 c-4 -5 -18 -15 -32 -20 -14 -5 -24 -12 -21 -14 8 -9 68
19 68 32 0 16 -7 17 -15 2z"/>
<path d="M18556 2453 c-3 -10 -8 -36 -12 -57 -6 -36 -5 -39 12 -31 10 4 29 10
42 12 12 3 25 9 28 14 7 12 -33 11 -57 -1 -22 -12 -22 -12 -8 29 9 26 15 31
33 25 21 -6 21 -6 1 10 -26 20 -33 20 -39 -1z"/>
<path d="M7847 2193 c-4 -3 -7 -11 -7 -17 0 -6 5 -5 12 2 6 6 9 14 7 17 -3 3
-9 2 -12 -2z"/>
<path d="M7920 2156 c0 -2 7 -7 16 -10 8 -3 12 -2 9 4 -6 10 -25 14 -25 6z"/>
<path d="M7960 2129 c0 -5 5 -7 10 -4 6 3 10 8 10 11 0 2 -4 4 -10 4 -5 0 -10
-5 -10 -11z"/>
<path d="M7820 1910 c0 -5 5 -10 11 -10 5 0 7 5 4 10 -3 6 -8 10 -11 10 -2 0
-4 -4 -4 -10z"/>
<path d="M17924 2044 l-48 -56 -53 6 c-32 4 -54 2 -58 -5 -11 -16 3 -23 19
-10 11 9 15 8 20 -5 3 -9 3 -21 0 -27 -3 -7 1 -4 9 6 15 18 72 23 97 7 11 -7
17 2 28 43 7 29 22 61 32 72 20 19 20 19 60 -20 37 -36 40 -44 38 -83 -3 -42
-1 -45 25 -48 15 -1 27 0 27 2 0 3 -11 30 -25 60 -14 30 -25 57 -25 60 0 3
-12 16 -27 29 -43 38 -65 32 -119 -31z"/>
<path d="M17970 2035 c0 -9 5 -15 11 -13 6 2 11 8 11 13 0 5 -5 11 -11 13 -6
2 -11 -4 -11 -13z"/>
<path d="M18010 2031 c0 -5 10 -16 23 -24 13 -10 18 -19 12 -24 -5 -4 -11 -26
-13 -48 -1 -26 1 -36 8 -29 17 17 17 114 0 124 -19 12 -30 12 -30 1z"/>
<path d="M17722 1980 c-16 -26 -15 -35 2 -21 11 9 15 9 19 -1 2 -7 8 -9 13 -5
5 4 2 12 -5 16 -7 5 -10 14 -7 20 4 6 3 11 -1 11 -5 0 -14 -9 -21 -20z"/>
<path d="M17970 1956 c0 -2 9 -6 20 -9 11 -3 20 -1 20 4 0 5 -9 9 -20 9 -11 0
-20 -2 -20 -4z"/>
<path d="M17950 1929 c0 -5 4 -9 10 -9 5 0 7 -6 4 -14 -3 -8 -1 -17 5 -21 6
-3 11 -1 11 4 0 6 7 11 15 11 25 0 17 15 -15 27 -16 6 -30 7 -30 2z"/>
<path d="M17675 1860 c-15 -17 -16 -22 -4 -37 7 -10 15 -20 16 -22 2 -2 12 4
23 14 18 16 20 16 20 2 0 -26 17 -20 24 8 10 40 -2 47 -32 20 -31 -29 -45 -32
-40 -7 2 9 12 16 21 16 10 -1 16 3 14 9 -6 19 -23 18 -42 -3z"/>
<path d="M17779 1840 c-1 -11 -2 -26 -3 -32 -1 -18 -32 -39 -93 -68 -29 -13
-51 -25 -49 -27 6 -6 132 53 140 66 4 6 18 8 31 5 20 -5 24 -1 30 26 8 37 -14
63 -27 32 -6 -16 -7 -16 -7 1 -1 24 -21 22 -22 -3z"/>
<path d="M18085 1744 c-20 -15 -19 -15 9 -69 15 -29 42 -71 60 -91 l33 -38 32
23 c18 13 30 25 27 28 -3 3 -18 -4 -34 -16 l-29 -21 -37 56 c-49 73 -59 100
-46 125 13 23 11 23 -15 3z"/>
<path d="M17645 1640 c3 -5 8 -10 11 -10 2 0 4 5 4 10 0 6 -5 10 -11 10 -5 0
-7 -4 -4 -10z"/>
<path d="M14230 1878 c-15 -71 -24 -138 -18 -138 3 0 43 13 89 29 l84 29 2 41
c1 39 0 41 -35 47 -21 3 -49 14 -64 25 -15 10 -31 19 -37 19 -5 0 -14 -24 -21
-52z"/>
<path d="M8775 1800 c-3 -5 1 -10 9 -10 9 0 16 5 16 10 0 6 -4 10 -9 10 -6 0
-13 -4 -16 -10z"/>
<path d="M16480 1224 c0 -8 5 -12 10 -9 6 4 8 11 5 16 -9 14 -15 11 -15 -7z"/>
<path d="M8760 1198 c-12 -22 -12 -22 6 -6 10 10 15 20 12 24 -4 3 -12 -5 -18
-18z"/>
<path d="M7990 3596 c0 -8 194 -106 203 -103 5 1 -36 26 -91 55 -96 50 -112
57 -112 48z"/>
<path d="M3389 3199 c24 -9 24 -10 5 -23 -10 -8 -28 -16 -39 -19 -19 -4 -19
-5 1 -6 12 0 32 8 45 19 21 17 22 21 9 30 -8 5 -22 9 -30 9 -8 0 -4 -5 9 -10z"/>
<path d="M3315 3190 c-8 -12 4 -70 13 -70 4 0 7 18 7 40 0 39 -8 50 -20 30z"/>
<path d="M3191 3171 c-15 -10 -7 -81 9 -81 5 0 4 14 -2 32 -9 26 -8 33 7 45
21 14 8 18 -14 4z"/>
<path d="M3247 3173 c20 -4 21 -7 12 -24 -6 -12 -17 -18 -25 -15 -26 10 -14
-2 18 -18 37 -19 38 -19 38 -6 0 6 -7 10 -15 10 -19 0 -19 14 0 30 20 17 9 30
-23 29 -24 -2 -24 -2 -5 -6z"/>
<path d="M5525 3095 c-176 -36 -498 -98 -715 -140 -341 -65 -1495 -293 -1662
-328 -31 -7 -60 -16 -64 -20 -4 -4 -18 -7 -30 -7 -22 0 -229 -40 -1214 -235
-261 -51 -558 -110 -660 -130 -396 -77 -775 -157 -784 -166 -9 -8 47 -111 83
-152 8 -10 25 -42 37 -70 12 -28 27 -53 34 -55 9 -3 9 1 1 16 -6 11 -11 30
-11 42 0 11 -12 32 -27 46 l-27 25 31 31 c29 29 34 30 61 19 29 -12 76 -7 99
11 7 6 18 8 25 5 7 -2 21 0 32 5 18 10 159 37 318 63 48 7 92 16 98 20 6 4 26
9 45 11 19 2 128 25 242 50 114 25 228 49 253 54 25 4 92 19 150 33 129 31
348 73 456 87 44 6 112 20 150 31 43 12 126 23 219 30 232 15 285 21 285 30 0
5 20 8 45 5 37 -3 45 -1 50 15 4 10 15 19 25 19 10 0 21 6 23 13 4 9 6 9 6 -1
1 -7 -6 -20 -14 -28 -12 -12 -12 -19 -2 -34 24 -39 39 -24 35 36 -3 47 -1 54
13 51 9 -3 24 4 33 15 9 10 21 16 26 13 6 -3 15 -3 22 1 21 13 111 11 146 -4
28 -11 32 -15 22 -27 -18 -21 -7 -18 20 5 23 20 23 21 4 34 -16 12 -16 15 -4
19 14 5 250 52 865 171 694 135 612 121 750 136 236 26 346 40 415 55 41 8 95
18 120 20 120 13 134 17 166 54 29 33 33 35 58 23 24 -11 26 -16 26 -74 0 -35
5 -70 10 -78 7 -11 10 1 10 40 0 31 6 80 14 110 13 50 29 139 28 157 0 4 -4 8
-9 10 -4 1 -152 -27 -328 -62z m-2432 -600 c-3 -9 -8 -14 -10 -11 -3 3 -2 9 2
15 9 16 15 13 8 -4z m-163 -65 c0 -5 -2 -10 -4 -10 -3 0 -8 5 -11 10 -3 6 -1
10 4 10 6 0 11 -4 11 -10z"/>
<path d="M3073 3138 c-12 -15 -34 -78 -27 -78 2 0 11 18 20 40 9 22 20 40 24
40 5 0 18 -13 30 -30 12 -16 29 -30 38 -29 14 0 13 2 -3 10 -12 6 -25 20 -30
32 -12 26 -38 33 -52 15z"/>
<path d="M2776 3085 c-11 -8 -17 -17 -14 -20 2 -3 13 4 23 15 21 23 18 25 -9
5z"/>
<path d="M2900 3087 c0 -7 7 -22 16 -33 14 -18 15 -18 4 4 -6 12 -8 27 -5 32
3 6 1 10 -4 10 -6 0 -11 -6 -11 -13z"/>
<path d="M2948 3083 c6 -2 18 -2 25 0 6 3 1 5 -13 5 -14 0 -19 -2 -12 -5z"/>
<path d="M3002 3070 c0 -14 2 -19 5 -12 2 6 2 18 0 25 -3 6 -5 1 -5 -13z"/>
<path d="M2796 3059 c4 -7 21 -9 40 -6 19 3 34 1 34 -4 0 -15 -51 -31 -80 -24
-21 4 -22 4 -7 -6 35 -21 129 21 95 42 -20 13 -91 11 -82 -2z"/>
</g>
</svg>
